<svg width="16" height="16" viewBox="0 0 16 16" fill="none" xmlns="http://www.w3.org/2000/svg">
<path d="M2.88889 2H7.264C7.73511 2 8.18756 2.18756 8.52089 2.52089L13.632 7.632C14.3262 8.32622 14.3262 9.45156 13.632 10.1458L10.1458 13.632C9.45156 14.3262 8.32622 14.3262 7.632 13.632L2.52089 8.52089C2.18756 8.18756 2 7.73511 2 7.264V2.88889C2 2.39822 2.39822 2 2.88889 2Z" stroke="#7D7D7D" stroke-width="1.5" stroke-linecap="round" stroke-linejoin="round"/>
<path d="M5.55545 6.66656C6.1691 6.66656 6.66656 6.1691 6.66656 5.55545C6.66656 4.9418 6.1691 4.44434 5.55545 4.44434C4.9418 4.44434 4.44434 4.9418 4.44434 5.55545C4.44434 6.1691 4.9418 6.66656 5.55545 6.66656Z" fill="#ABABAB"/>
</svg>
