<svg width="16" height="16" viewBox="0 0 16 16" fill="none" xmlns="http://www.w3.org/2000/svg">
<g clip-path="url(#clip0_1070_913)">
<path d="M8.88906 8.48438L4.50684 12.8666" stroke="#ABABAB" stroke-width="1.5" stroke-linecap="round" stroke-linejoin="round"/>
<path d="M2.17144 12.5708C1.03811 11.6792 0.742996 10.8881 0.690551 10.3148C0.535884 8.60457 2.44611 7.69168 2.43366 5.78323C2.42566 4.55923 1.63011 3.56901 0.981218 2.93701" stroke="#ABABAB" stroke-width="1.5" stroke-linecap="round" stroke-linejoin="round"/>
<path d="M13.5471 7.16168L12.132 11.1581C12.028 11.4515 11.7791 11.6692 11.4743 11.7315L5.11248 13.0479C4.64315 13.1448 4.22715 12.7297 4.32493 12.2604L5.64137 5.89857C5.70448 5.59368 5.92226 5.34479 6.21471 5.24079L10.2111 3.82568" stroke="#7D7D7D" stroke-width="1.5" stroke-linecap="round" stroke-linejoin="round"/>
<path d="M10.2187 2.04102L9.9511 2.30857C9.60354 2.65613 9.60354 3.21879 9.9511 3.56546L11.8791 5.49346L13.8071 7.42146C14.1547 7.76902 14.7173 7.76902 15.064 7.42146L15.3315 7.1539" stroke="#7D7D7D" stroke-width="1.5" stroke-linecap="round" stroke-linejoin="round"/>
<path d="M8.88835 9.1512C9.25654 9.1512 9.55501 8.85273 9.55501 8.48454C9.55501 8.11635 9.25654 7.81787 8.88835 7.81787C8.52016 7.81787 8.22168 8.11635 8.22168 8.48454C8.22168 8.85273 8.52016 9.1512 8.88835 9.1512Z" stroke="#ABABAB" stroke-width="1.5" stroke-linecap="round" stroke-linejoin="round"/>
</g>
<defs>
<clipPath id="clip0_1070_913">
<rect width="16" height="16" fill="white"/>
</clipPath>
</defs>
</svg>
