<svg width="16" height="16" viewBox="0 0 16 16" fill="none" xmlns="http://www.w3.org/2000/svg">
<path d="M1.55566 7.77783C2.81878 8.32539 5.081 9.11383 8.00011 9.11383C10.9192 9.11383 13.1814 8.32539 14.4446 7.77783" stroke="#ABABAB" stroke-width="1.5" stroke-linecap="round" stroke-linejoin="round"/>
<path d="M8 8.22266V10.2227" stroke="#7D7D7D" stroke-width="1.5" stroke-linecap="round" stroke-linejoin="round"/>
<path d="M5.55566 4.22244V2.00022C5.55566 1.50955 5.95389 1.11133 6.44455 1.11133H9.55566C10.0463 1.11133 10.4446 1.50955 10.4446 2.00022V4.22244" stroke="#ABABAB" stroke-width="1.5" stroke-linecap="round" stroke-linejoin="round"/>
<path d="M12.6668 4.22266H3.33344C2.3516 4.22266 1.55566 5.01859 1.55566 6.00043V11.7782C1.55566 12.7601 2.3516 13.556 3.33344 13.556H12.6668C13.6486 13.556 14.4446 12.7601 14.4446 11.7782V6.00043C14.4446 5.01859 13.6486 4.22266 12.6668 4.22266Z" stroke="#7D7D7D" stroke-width="1.5" stroke-linecap="round" stroke-linejoin="round"/>
</svg>
