<svg width="16" height="16" viewBox="0 0 16 16" fill="none" xmlns="http://www.w3.org/2000/svg">
<path d="M5.55534 2.44482H4.66645C3.68423 2.44482 2.88867 3.24038 2.88867 4.2226V12.667C2.88867 13.6493 3.68423 14.4448 4.66645 14.4448H11.3331C12.3153 14.4448 13.1109 13.6493 13.1109 12.667V4.2226C13.1109 3.24038 12.3153 2.44482 11.3331 2.44482H10.4442" stroke="#7D7D7D" stroke-width="1.5" stroke-linecap="round" stroke-linejoin="round"/>
<path d="M9.55566 1.11133H6.44455C5.95363 1.11133 5.55566 1.5093 5.55566 2.00022V2.88911C5.55566 3.38003 5.95363 3.77799 6.44455 3.77799H9.55566C10.0466 3.77799 10.4446 3.38003 10.4446 2.88911V2.00022C10.4446 1.5093 10.0466 1.11133 9.55566 1.11133Z" stroke="#ABABAB" stroke-width="1.5" stroke-linecap="round" stroke-linejoin="round"/>
<path d="M5.55566 9.11149L7.11122 10.8893L10.4446 6.44482" stroke="#ABABAB" stroke-width="1.5" stroke-linecap="round" stroke-linejoin="round"/>
</svg>
