<svg width="66" height="66" viewBox="0 0 66 66" fill="none" xmlns="http://www.w3.org/2000/svg">
<path d="M12.9596 55.632L16.7298 51.8686C20.7397 55.3348 25.7562 57.4283 31.0445 57.8423V63.1051C31.0445 64.1577 31.862 65 32.9164 65C33.9972 65 34.8147 64.1577 34.8147 63.1051V57.8423C40.2713 57.4206 45.2275 55.2366 49.1557 51.8686L52.9258 55.632C53.6906 56.368 54.8768 56.3943 55.5889 55.632C56.3537 54.8949 56.3537 53.7109 55.5889 52.9474L51.8187 49.184C55.2604 45.1673 57.3368 40.1643 57.7493 34.8949H63.1017C63.3513 34.8961 63.5987 34.8479 63.8296 34.7531C64.0604 34.6583 64.2702 34.5188 64.4467 34.3426C64.6232 34.1664 64.763 33.957 64.858 33.7266C64.9529 33.4961 65.0012 33.2492 65 33C65 31.9474 64.1562 31.1314 63.1017 31.1314H57.7505C57.3429 25.8527 55.2657 20.8398 51.8187 16.816L55.5889 13.0526C56.3537 12.2891 56.3537 11.1051 55.6152 10.368C54.8768 9.632 53.6906 9.632 52.9258 10.368L49.1557 14.1314C45.2287 10.7634 40.2713 8.57943 34.8147 8.184V2.89486C34.8147 1.84229 33.9961 1 32.9164 1C31.862 1 31.0445 1.84229 31.0445 2.89486V8.184C25.7564 8.5768 20.7364 10.6626 16.7309 14.1314L12.9608 10.368C12.1708 9.632 11.0099 9.632 10.2451 10.368C9.50776 11.1051 9.53409 12.2891 10.2714 13.0537L14.0416 16.816C10.5951 20.84 8.51831 25.8529 8.11098 31.1314H2.75628C1.70297 31.1314 1 31.9486 1 33C1 34.0514 1.70297 34.8949 2.75742 34.8949H8.10869C8.52173 40.164 10.5986 45.1666 14.0404 49.1829L10.2703 52.9463C9.53295 53.7097 9.50661 54.8937 10.2703 55.6309C11.0087 56.3931 12.1685 56.3669 12.9608 55.6309M34.8147 12.4743C39.1378 12.8686 43.0396 14.5531 46.124 17.1577L34.8147 28.448V12.4743ZM19.7352 17.1577C22.9375 14.4805 26.8841 12.8461 31.0445 12.4743V28.448L19.7352 17.1577ZM12.5635 31.1314C12.9322 26.8423 14.5671 22.9737 17.0973 19.8686L28.3551 31.1314H12.5635ZM37.5029 31.1314L48.7859 19.8686C51.3805 23.0899 52.9507 27.0123 53.2945 31.1314H37.5029ZM12.5635 34.8949H28.3551L17.0973 46.1314C14.5671 43.0526 12.9322 39.1577 12.5635 34.8949ZM37.5029 34.8949H53.2945C52.9247 39.1577 51.2909 43.0526 48.7859 46.1314L37.5029 34.8949ZM19.734 48.8423L31.0434 37.5531V53.5257C26.8827 53.1532 22.936 51.518 19.734 48.84M34.8124 37.5509L46.124 48.84C43.0385 51.4457 39.1367 53.1291 34.8124 53.5246V37.5509Z" fill="black"/>
<path d="M12.9596 55.632L16.7298 51.8686C20.7397 55.3348 25.7562 57.4283 31.0445 57.8423V63.1051C31.0445 64.1577 31.862 65 32.9164 65C33.9972 65 34.8147 64.1577 34.8147 63.1051V57.8423C40.2713 57.4206 45.2275 55.2366 49.1557 51.8686L52.9258 55.632C53.6906 56.368 54.8768 56.3943 55.5889 55.632C56.3537 54.8949 56.3537 53.7109 55.5889 52.9474L51.8187 49.184C55.2604 45.1673 57.3368 40.1643 57.7493 34.8949H63.1017C63.3513 34.8961 63.5987 34.8479 63.8296 34.7531C64.0604 34.6583 64.2702 34.5188 64.4467 34.3426C64.6232 34.1664 64.763 33.957 64.858 33.7266C64.9529 33.4961 65.0012 33.2492 65 33C65 31.9474 64.1562 31.1314 63.1017 31.1314H57.7505C57.3429 25.8527 55.2657 20.8398 51.8187 16.816L55.5889 13.0526C56.3537 12.2891 56.3537 11.1051 55.6152 10.368C54.8768 9.632 53.6906 9.632 52.9258 10.368L49.1557 14.1314C45.2287 10.7634 40.2713 8.57943 34.8147 8.184V2.89486C34.8147 1.84229 33.9961 1 32.9164 1C31.862 1 31.0445 1.84229 31.0445 2.89486V8.184C25.7564 8.5768 20.7364 10.6626 16.7309 14.1314L12.9608 10.368C12.1708 9.632 11.0099 9.632 10.2451 10.368C9.50776 11.1051 9.53409 12.2891 10.2714 13.0537L14.0416 16.816C10.5951 20.84 8.51831 25.8529 8.11098 31.1314H2.75628C1.70297 31.1314 1 31.9486 1 33C1 34.0514 1.70297 34.8949 2.75742 34.8949H8.10869C8.52173 40.164 10.5986 45.1666 14.0404 49.1829L10.2703 52.9463C9.53295 53.7097 9.50661 54.8937 10.2703 55.6309C11.0087 56.3931 12.1685 56.3669 12.9608 55.6309M19.734 48.8423L31.0434 37.5531V53.5257C26.8827 53.1532 22.936 51.518 19.734 48.84M34.8147 12.4743C39.1378 12.8686 43.0396 14.5531 46.124 17.1577L34.8147 28.448V12.4743ZM19.7352 17.1577C22.9375 14.4805 26.8841 12.8461 31.0445 12.4743V28.448L19.7352 17.1577ZM12.5635 31.1314C12.9322 26.8423 14.5671 22.9737 17.0973 19.8686L28.3551 31.1314H12.5635ZM37.5029 31.1314L48.7859 19.8686C51.3805 23.0899 52.9507 27.0123 53.2945 31.1314H37.5029ZM12.5635 34.8949H28.3551L17.0973 46.1314C14.5671 43.0526 12.9322 39.1577 12.5635 34.8949ZM37.5029 34.8949H53.2945C52.9247 39.1577 51.2909 43.0526 48.7859 46.1314L37.5029 34.8949ZM34.8124 37.5509L46.124 48.84C43.0385 51.4457 39.1367 53.1291 34.8124 53.5246V37.5509Z" stroke="black"/>
</svg>
