<svg width="24" height="24" viewBox="0 0 24 24" fill="none" xmlns="http://www.w3.org/2000/svg">
<path d="M5.11112 19.7798L6.40712 18.4861C7.78554 19.6776 9.50996 20.3972 11.3278 20.5395V22.3486C11.3278 22.7105 11.6088 23 11.9713 23C12.3428 23 12.6238 22.7105 12.6238 22.3486V20.5395C14.4995 20.3946 16.2032 19.6438 17.5535 18.4861L18.8495 19.7798C19.1124 20.0328 19.5201 20.0418 19.7649 19.7798C20.0278 19.5264 20.0278 19.1194 19.7649 18.8569L18.4689 17.5632C19.652 16.1825 20.3658 14.4627 20.5076 12.6514H22.3475C22.4333 12.6518 22.5183 12.6352 22.5977 12.6026C22.677 12.57 22.7491 12.5221 22.8098 12.4615C22.8705 12.4009 22.9185 12.329 22.9512 12.2498C22.9838 12.1705 23.0004 12.0857 23 12C23 11.6382 22.7099 11.3577 22.3475 11.3577H20.508C20.3679 9.54312 19.6538 7.81992 18.4689 6.43675L19.7649 5.14307C20.0278 4.88064 20.0278 4.47364 19.774 4.22025C19.5201 3.96725 19.1124 3.96725 18.8495 4.22025L17.5535 5.51393C16.2036 4.35618 14.4995 3.60543 12.6238 3.4695V1.65136C12.6238 1.28954 12.3424 1 11.9713 1C11.6088 1 11.3278 1.28954 11.3278 1.65136V3.4695C9.51 3.60452 7.78439 4.32153 6.40751 5.51393L5.11152 4.22025C4.83996 3.96725 4.44089 3.96725 4.178 4.22025C3.92454 4.47364 3.93359 4.88064 4.18705 5.14346L5.48304 6.43675C4.2983 7.81999 3.58442 9.54318 3.4444 11.3577H1.60372C1.24165 11.3577 1 11.6386 1 12C1 12.3614 1.24165 12.6514 1.60411 12.6514H3.44361C3.58559 14.4626 4.29951 16.1823 5.48265 17.5629L4.18665 18.8565C3.9332 19.119 3.92415 19.526 4.18665 19.7794C4.4405 20.0414 4.83918 20.0324 5.11152 19.7794M12.6238 4.94429C14.1099 5.07982 15.4511 5.65889 16.5114 6.55421L12.6238 10.4353V4.94429ZM7.44021 6.55421C8.541 5.63393 9.89766 5.07211 11.3278 4.94429V10.4353L7.44021 6.55421ZM4.97495 11.3577C5.10168 9.88329 5.66368 8.55346 6.53345 7.48607L10.4033 11.3577H4.97495ZM13.5479 11.3577L17.4264 7.48607C18.3183 8.59341 18.8581 9.94172 18.9762 11.3577H13.5479ZM4.97495 12.6514H10.4033L6.53345 16.5139C5.66368 15.4556 5.10168 14.1167 4.97495 12.6514ZM13.5479 12.6514H18.9762C18.8491 14.1167 18.2875 15.4556 17.4264 16.5139L13.5479 12.6514ZM7.43982 17.4458L11.3274 13.5651V19.0557C9.89717 18.9277 8.54051 18.3656 7.43982 17.445M12.623 13.5644L16.5114 17.445C15.4507 18.3407 14.1095 18.9194 12.623 19.0553V13.5644Z" fill="black"/>
<path d="M5.11113 19.7798L6.40712 18.4861C7.78554 19.6776 9.50996 20.3972 11.3278 20.5395V22.3486C11.3278 22.7105 11.6088 23 11.9713 23C12.3428 23 12.6238 22.7105 12.6238 22.3486V20.5395C14.4995 20.3946 16.2032 19.6438 17.5535 18.4861L18.8495 19.7798C19.1124 20.0328 19.5201 20.0418 19.7649 19.7798C20.0278 19.5264 20.0278 19.1194 19.7649 18.8569L18.4689 17.5632C19.652 16.1825 20.3658 14.4627 20.5076 12.6514H22.3475C22.4333 12.6518 22.5183 12.6352 22.5977 12.6026C22.677 12.57 22.7491 12.5221 22.8098 12.4615C22.8705 12.4009 22.9185 12.329 22.9512 12.2498C22.9838 12.1705 23.0004 12.0857 23 12C23 11.6382 22.7099 11.3577 22.3475 11.3577H20.508C20.3679 9.54312 19.6538 7.81992 18.4689 6.43675L19.7649 5.14307C20.0278 4.88064 20.0278 4.47364 19.774 4.22025C19.5201 3.96725 19.1124 3.96725 18.8495 4.22025L17.5535 5.51393C16.2036 4.35618 14.4995 3.60543 12.6238 3.4695V1.65136C12.6238 1.28954 12.3424 1 11.9713 1C11.6088 1 11.3278 1.28954 11.3278 1.65136V3.4695C9.51 3.60452 7.78439 4.32153 6.40751 5.51393L5.11152 4.22025C4.83996 3.96725 4.44089 3.96725 4.178 4.22025C3.92454 4.47364 3.93359 4.88064 4.18705 5.14346L5.48304 6.43675C4.2983 7.81999 3.58442 9.54318 3.4444 11.3577H1.60372C1.24165 11.3577 1 11.6386 1 12C1 12.3614 1.24165 12.6514 1.60411 12.6514H3.44361C3.58559 14.4626 4.29951 16.1823 5.48265 17.5629L4.18665 18.8565C3.9332 19.119 3.92415 19.526 4.18665 19.7794C4.4405 20.0414 4.83918 20.0324 5.11152 19.7794M7.43982 17.4458L11.3274 13.5651V19.0557C9.89717 18.9277 8.54051 18.3656 7.43982 17.445M12.6238 4.94429C14.1099 5.07982 15.4511 5.65889 16.5114 6.55421L12.6238 10.4352V4.94429ZM7.44021 6.55421C8.541 5.63393 9.89766 5.07211 11.3278 4.94429V10.4352L7.44021 6.55421ZM4.97495 11.3577C5.10168 9.88329 5.66368 8.55346 6.53345 7.48607L10.4033 11.3577H4.97495ZM13.5479 11.3577L17.4264 7.48607C18.3183 8.59341 18.8581 9.94172 18.9762 11.3577H13.5479ZM4.97495 12.6514H10.4033L6.53345 16.5139C5.66368 15.4556 5.10168 14.1167 4.97495 12.6514ZM13.5479 12.6514H18.9762C18.8491 14.1167 18.2875 15.4556 17.4264 16.5139L13.5479 12.6514ZM12.623 13.5644L16.5114 17.445C15.4507 18.3407 14.1095 18.9194 12.623 19.0553V13.5644Z" stroke="black" stroke-width="0.7"/>
</svg>
