<svg width="118" height="17" viewBox="0 0 118 17" fill="none" xmlns="http://www.w3.org/2000/svg">
<path d="M19.6 2.1L15.48 16H12.9L9.98 5.48L6.88 16L4.32 16.02L0.38 2.1H2.8L5.68 13.42L8.8 2.1H11.36L14.26 13.36L17.16 2.1H19.6ZM26.0605 16.14C25.1271 16.14 24.2871 15.98 23.5405 15.66C22.7938 15.3267 22.2071 14.86 21.7805 14.26C21.3538 13.66 21.1405 12.96 21.1405 12.16H23.5805C23.6338 12.76 23.8671 13.2533 24.2805 13.64C24.7071 14.0267 25.3005 14.22 26.0605 14.22C26.8471 14.22 27.4605 14.0333 27.9005 13.66C28.3405 13.2733 28.5605 12.78 28.5605 12.18C28.5605 11.7133 28.4205 11.3333 28.1405 11.04C27.8738 10.7467 27.5338 10.52 27.1205 10.36C26.7205 10.2 26.1605 10.0267 25.4405 9.84C24.5338 9.6 23.7938 9.36 23.2205 9.12C22.6605 8.86667 22.1805 8.48 21.7805 7.96C21.3805 7.44 21.1805 6.74667 21.1805 5.88C21.1805 5.08 21.3805 4.38 21.7805 3.78C22.1805 3.18 22.7405 2.72 23.4605 2.4C24.1805 2.08 25.0138 1.92 25.9605 1.92C27.3071 1.92 28.4071 2.26 29.2605 2.94C30.1271 3.60667 30.6071 4.52667 30.7005 5.7H28.1805C28.1405 5.19333 27.9005 4.76 27.4605 4.4C27.0205 4.04 26.4405 3.86 25.7205 3.86C25.0671 3.86 24.5338 4.02667 24.1205 4.36C23.7071 4.69333 23.5005 5.17333 23.5005 5.8C23.5005 6.22667 23.6271 6.58 23.8805 6.86C24.1471 7.12667 24.4805 7.34 24.8805 7.5C25.2805 7.66 25.8271 7.83333 26.5205 8.02C27.4405 8.27333 28.1871 8.52667 28.7605 8.78C29.3471 9.03333 29.8405 9.42667 30.2405 9.96C30.6538 10.48 30.8605 11.18 30.8605 12.06C30.8605 12.7667 30.6671 13.4333 30.2805 14.06C29.9071 14.6867 29.3538 15.1933 28.6205 15.58C27.9005 15.9533 27.0471 16.14 26.0605 16.14ZM43.3261 16.14C42.3928 16.14 41.5528 15.98 40.8061 15.66C40.0594 15.3267 39.4728 14.86 39.0461 14.26C38.6194 13.66 38.4061 12.96 38.4061 12.16H40.8461C40.8994 12.76 41.1328 13.2533 41.5461 13.64C41.9728 14.0267 42.5661 14.22 43.3261 14.22C44.1128 14.22 44.7261 14.0333 45.1661 13.66C45.6061 13.2733 45.8261 12.78 45.8261 12.18C45.8261 11.7133 45.6861 11.3333 45.4061 11.04C45.1394 10.7467 44.7994 10.52 44.3861 10.36C43.9861 10.2 43.4261 10.0267 42.7061 9.84C41.7994 9.6 41.0594 9.36 40.4861 9.12C39.9261 8.86667 39.4461 8.48 39.0461 7.96C38.6461 7.44 38.4461 6.74667 38.4461 5.88C38.4461 5.08 38.6461 4.38 39.0461 3.78C39.4461 3.18 40.0061 2.72 40.7261 2.4C41.4461 2.08 42.2794 1.92 43.2261 1.92C44.5728 1.92 45.6728 2.26 46.5261 2.94C47.3928 3.60667 47.8728 4.52667 47.9661 5.7H45.4461C45.4061 5.19333 45.1661 4.76 44.7261 4.4C44.2861 4.04 43.7061 3.86 42.9861 3.86C42.3328 3.86 41.7994 4.02667 41.3861 4.36C40.9728 4.69333 40.7661 5.17333 40.7661 5.8C40.7661 6.22667 40.8928 6.58 41.1461 6.86C41.4128 7.12667 41.7461 7.34 42.1461 7.5C42.5461 7.66 43.0928 7.83333 43.7861 8.02C44.7061 8.27333 45.4528 8.52667 46.0261 8.78C46.6128 9.03333 47.1061 9.42667 47.5061 9.96C47.9194 10.48 48.1261 11.18 48.1261 12.06C48.1261 12.7667 47.9328 13.4333 47.5461 14.06C47.1728 14.6867 46.6194 15.1933 45.8861 15.58C45.1661 15.9533 44.3128 16.14 43.3261 16.14ZM51.9764 3.52C51.5631 3.52 51.2164 3.38 50.9364 3.1C50.6564 2.82 50.5164 2.47333 50.5164 2.06C50.5164 1.64667 50.6564 1.3 50.9364 1.02C51.2164 0.739999 51.5631 0.599999 51.9764 0.599999C52.3764 0.599999 52.7164 0.739999 52.9964 1.02C53.2764 1.3 53.4164 1.64667 53.4164 2.06C53.4164 2.47333 53.2764 2.82 52.9964 3.1C52.7164 3.38 52.3764 3.52 51.9764 3.52ZM53.0964 4.98V16H50.8164V4.98H53.0964ZM60.0898 16.18C59.2232 16.18 58.4432 16.0267 57.7498 15.72C57.0698 15.4 56.5298 14.9733 56.1298 14.44C55.7298 13.8933 55.5165 13.2867 55.4898 12.62H57.8498C57.8898 13.0867 58.1098 13.48 58.5098 13.8C58.9232 14.1067 59.4365 14.26 60.0498 14.26C60.6898 14.26 61.1832 14.14 61.5298 13.9C61.8898 13.6467 62.0698 13.3267 62.0698 12.94C62.0698 12.5267 61.8698 12.22 61.4698 12.02C61.0832 11.82 60.4632 11.6 59.6098 11.36C58.7832 11.1333 58.1098 10.9133 57.5898 10.7C57.0698 10.4867 56.6165 10.16 56.2298 9.72C55.8565 9.28 55.6698 8.7 55.6698 7.98C55.6698 7.39333 55.8432 6.86 56.1898 6.38C56.5365 5.88667 57.0298 5.5 57.6698 5.22C58.3232 4.94 59.0698 4.8 59.9098 4.8C61.1632 4.8 62.1698 5.12 62.9298 5.76C63.7032 6.38667 64.1165 7.24667 64.1698 8.34H61.8898C61.8498 7.84667 61.6498 7.45333 61.2898 7.16C60.9298 6.86667 60.4432 6.72 59.8298 6.72C59.2298 6.72 58.7698 6.83333 58.4498 7.06C58.1298 7.28667 57.9698 7.58667 57.9698 7.96C57.9698 8.25333 58.0765 8.5 58.2898 8.7C58.5032 8.9 58.7632 9.06 59.0698 9.18C59.3765 9.28667 59.8298 9.42667 60.4298 9.6C61.2298 9.81333 61.8832 10.0333 62.3898 10.26C62.9098 10.4733 63.3565 10.7933 63.7298 11.22C64.1032 11.6467 64.2965 12.2133 64.3098 12.92C64.3098 13.5467 64.1365 14.1067 63.7898 14.6C63.4432 15.0933 62.9498 15.48 62.3098 15.76C61.6832 16.04 60.9432 16.18 60.0898 16.18ZM69.4334 6.84V12.94C69.4334 13.3533 69.5268 13.6533 69.7134 13.84C69.9134 14.0133 70.2468 14.1 70.7134 14.1H72.1134V16H70.3134C69.2868 16 68.5001 15.76 67.9534 15.28C67.4068 14.8 67.1334 14.02 67.1334 12.94V6.84H65.8334V4.98H67.1334V2.24H69.4334V4.98H72.1134V6.84H69.4334ZM84.3148 10.22C84.3148 10.6333 84.2882 11.0067 84.2348 11.34H75.8148C75.8815 12.22 76.2082 12.9267 76.7948 13.46C77.3815 13.9933 78.1015 14.26 78.9548 14.26C80.1815 14.26 81.0482 13.7467 81.5548 12.72H84.0148C83.6815 13.7333 83.0748 14.5667 82.1948 15.22C81.3282 15.86 80.2482 16.18 78.9548 16.18C77.9015 16.18 76.9548 15.9467 76.1148 15.48C75.2882 15 74.6348 14.3333 74.1548 13.48C73.6882 12.6133 73.4548 11.6133 73.4548 10.48C73.4548 9.34667 73.6815 8.35333 74.1348 7.5C74.6015 6.63333 75.2482 5.96667 76.0748 5.5C76.9148 5.03333 77.8748 4.8 78.9548 4.8C79.9948 4.8 80.9215 5.02667 81.7348 5.48C82.5482 5.93333 83.1815 6.57333 83.6348 7.4C84.0882 8.21333 84.3148 9.15333 84.3148 10.22ZM81.9348 9.5C81.9215 8.66 81.6215 7.98667 81.0348 7.48C80.4482 6.97333 79.7215 6.72 78.8548 6.72C78.0682 6.72 77.3948 6.97333 76.8348 7.48C76.2748 7.97333 75.9415 8.64667 75.8348 9.5H81.9348ZM99.8986 4.8C100.765 4.8 101.539 4.98 102.219 5.34C102.912 5.7 103.452 6.23333 103.839 6.94C104.239 7.64667 104.439 8.5 104.439 9.5V16H102.179V9.84C102.179 8.85333 101.932 8.1 101.439 7.58C100.945 7.04667 100.272 6.78 99.4186 6.78C98.5653 6.78 97.8853 7.04667 97.3786 7.58C96.8853 8.1 96.6386 8.85333 96.6386 9.84V16H94.3786V9.84C94.3786 8.85333 94.1319 8.1 93.6386 7.58C93.1453 7.04667 92.4719 6.78 91.6186 6.78C90.7653 6.78 90.0853 7.04667 89.5786 7.58C89.0853 8.1 88.8386 8.85333 88.8386 9.84V16H86.5586V4.98H88.8386V6.24C89.2119 5.78667 89.6853 5.43333 90.2586 5.18C90.8319 4.92667 91.4453 4.8 92.0986 4.8C92.9786 4.8 93.7653 4.98667 94.4586 5.36C95.1519 5.73333 95.6853 6.27333 96.0586 6.98C96.3919 6.31333 96.9119 5.78667 97.6186 5.4C98.3253 5 99.0853 4.8 99.8986 4.8ZM106.58 10.44C106.58 9.33333 106.807 8.35333 107.26 7.5C107.727 6.64667 108.353 5.98667 109.14 5.52C109.94 5.04 110.82 4.8 111.78 4.8C112.647 4.8 113.4 4.97333 114.04 5.32C114.693 5.65333 115.213 6.07333 115.6 6.58V4.98H117.9V16H115.6V14.36C115.213 14.88 114.687 15.3133 114.02 15.66C113.353 16.0067 112.593 16.18 111.74 16.18C110.793 16.18 109.927 15.94 109.14 15.46C108.353 14.9667 107.727 14.2867 107.26 13.42C106.807 12.54 106.58 11.5467 106.58 10.44ZM115.6 10.48C115.6 9.72 115.44 9.06 115.12 8.5C114.813 7.94 114.407 7.51333 113.9 7.22C113.393 6.92667 112.847 6.78 112.26 6.78C111.673 6.78 111.127 6.92667 110.62 7.22C110.113 7.5 109.7 7.92 109.38 8.48C109.073 9.02667 108.92 9.68 108.92 10.44C108.92 11.2 109.073 11.8667 109.38 12.44C109.7 13.0133 110.113 13.4533 110.62 13.76C111.14 14.0533 111.687 14.2 112.26 14.2C112.847 14.2 113.393 14.0533 113.9 13.76C114.407 13.4667 114.813 13.04 115.12 12.48C115.44 11.9067 115.6 11.24 115.6 10.48Z" fill="black"/>
</svg>
