<svg width="600" height="400" viewBox="0 0 600 400" fill="none" xmlns="http://www.w3.org/2000/svg">
<path d="M519.917 101.536H579.157C579.157 101.536 573.919 91.4797 558.667 92.9483C544.106 94.3489 543.368 87.9977 535.963 87.2196C528.558 86.4415 522.379 92.4231 519.917 101.536Z" fill="#F5F5F5"/>
<path d="M289.77 33.6287H392.057C392.057 33.6287 383.011 16.2676 356.683 18.7964C331.535 21.2279 330.253 10.286 317.472 8.92437C304.691 7.56272 294.077 17.921 289.77 33.6287Z" fill="#EBEBEB"/>
<path d="M490.761 42.3049C494.942 38.3719 495.309 31.6089 491.58 27.1993C487.851 22.7896 481.438 22.4032 477.257 26.3362C473.076 30.2692 472.71 37.0322 476.439 41.4419C480.168 45.8515 486.58 46.2379 490.761 42.3049Z" fill="#EBEBEB"/>
<path d="M483.915 55.172C483.714 53.1109 483.646 51.0376 483.712 48.9667C483.646 46.8959 483.713 44.8226 483.915 42.7615C484.117 44.8226 484.185 46.8959 484.118 48.9667C484.185 51.0376 484.117 53.1109 483.915 55.172Z" fill="#EBEBEB"/>
<path d="M503.161 34.3094C499.081 34.5948 494.987 34.5948 490.906 34.3094C494.987 34.0241 499.081 34.0241 503.161 34.3094Z" fill="#EBEBEB"/>
<path d="M484.045 16.1995C484.246 18.0881 484.314 19.99 484.247 21.8892C484.314 23.7853 484.246 25.6839 484.045 27.5693C483.843 25.6839 483.775 23.7853 483.842 21.8892C483.775 19.99 483.843 18.0881 484.045 16.1995Z" fill="#EBEBEB"/>
<path d="M478.576 35.0779C474.246 35.3632 469.903 35.3632 465.573 35.0779C469.903 34.7926 474.246 34.7926 478.576 35.0779Z" fill="#EBEBEB"/>
<path d="M479.434 30.8859C478.115 29.8097 476.881 28.6225 475.745 27.3359C474.522 26.1404 473.396 24.839 472.379 23.4454C473.697 24.5216 474.931 25.7089 476.068 26.9955C477.287 28.1942 478.413 29.4952 479.434 30.8859Z" fill="#EBEBEB"/>
<path d="M494.788 23.611C494.035 24.7251 493.173 25.7521 492.215 26.6747C491.351 27.7028 490.387 28.6319 489.338 29.4466C490.097 28.3318 490.962 27.3019 491.92 26.3732C492.784 25.3512 493.745 24.4256 494.788 23.611Z" fill="#EBEBEB"/>
<path d="M495.517 46.5644C494.246 45.5242 493.059 44.3759 491.966 43.131C490.78 41.985 489.691 40.7321 488.711 39.3865C489.987 40.4199 491.175 41.5687 492.261 42.8198C493.445 43.9689 494.534 45.2215 495.517 46.5644Z" fill="#EBEBEB"/>
<path d="M481.785 38.5889C480.434 40.3211 478.98 41.9616 477.433 43.5006C475.985 45.1303 474.445 46.6665 472.822 48.101C474.167 46.3812 475.618 44.7566 477.165 43.238C478.614 41.5903 480.157 40.0377 481.785 38.5889Z" fill="#EBEBEB"/>
<path d="M110.878 117.332H160.675C160.675 117.332 156.267 108.88 143.44 110.105C131.193 111.282 130.529 105.952 124.342 105.291C118.154 104.629 112.953 109.668 110.878 117.332Z" fill="#EBEBEB"/>
<path d="M507.496 378.011C507.496 378.011 507.431 378.099 507.284 378.235L506.629 378.838C506.325 379.091 505.937 379.373 505.476 379.713C504.926 380.072 504.356 380.397 503.77 380.686C502.154 381.477 500.44 382.024 498.68 382.31C496.351 382.682 493.989 382.754 491.644 382.524C488.812 382.223 486.006 381.693 483.252 380.939C480.273 380.19 477.119 379.285 473.744 378.673C470.219 377.989 466.612 377.92 463.065 378.468C459.264 379.126 455.511 380.062 451.833 381.269C448.133 382.481 444.354 383.411 440.528 384.051C436.931 384.575 433.278 384.479 429.71 383.769C426.507 383.124 423.336 382.306 420.212 381.318C417.27 380.423 414.531 379.616 411.995 379.013C409.724 378.464 407.414 378.106 405.088 377.943C404.056 377.943 403.096 377.943 402.22 377.992C401.42 378.048 400.623 378.149 399.832 378.293L397.988 378.721L396.651 379.208L395.83 379.499C395.734 379.536 395.635 379.566 395.535 379.587C395.621 379.53 395.714 379.484 395.811 379.451L396.614 379.11C396.973 378.964 397.416 378.77 397.951 378.575L399.795 378.099C400.591 377.937 401.394 377.82 402.202 377.749C403.124 377.632 404.046 377.7 405.098 377.661C407.443 377.784 409.774 378.109 412.069 378.634C414.614 379.217 417.372 380.005 420.313 380.88C423.431 381.853 426.596 382.652 429.793 383.273C433.313 383.967 436.916 384.056 440.463 383.536C444.268 382.89 448.024 381.96 451.704 380.754C455.402 379.537 459.177 378.597 463.001 377.943C466.595 377.397 470.249 377.48 473.818 378.186C477.221 378.809 480.375 379.733 483.344 380.501C486.067 381.269 488.842 381.818 491.644 382.145C493.965 382.39 496.305 382.341 498.615 381.999C500.354 381.735 502.051 381.225 503.66 380.482C505.034 379.835 506.323 379.005 507.496 378.011Z" fill="#E0E0E0"/>
<path d="M159.098 393.622C159.035 393.701 158.964 393.772 158.886 393.836L158.231 394.448C157.93 394.695 157.543 394.987 157.069 395.324C155.004 396.682 152.692 397.57 150.282 397.93C147.954 398.302 145.591 398.374 143.246 398.144C140.414 397.84 137.609 397.306 134.854 396.549C131.876 395.8 128.722 394.896 125.337 394.293C121.816 393.606 118.212 393.534 114.668 394.079C110.868 394.741 107.115 395.677 103.436 396.88C99.7324 398.095 95.951 399.028 92.1208 399.671C88.5238 400.192 84.8707 400.093 81.3037 399.379C78.099 398.739 74.9285 397.921 71.8053 396.929C68.8636 396.043 66.1247 395.226 63.5887 394.633C61.3155 394.074 59.0021 393.716 56.6724 393.563C55.6488 393.563 54.6898 393.505 53.8137 393.563C53.0129 393.622 52.2156 393.726 51.4253 393.875L49.5809 394.302L48.2438 394.779L47.4138 395.081C47.3219 395.119 47.2259 395.145 47.1279 395.158L47.3954 395.032L48.2069 394.692C48.5665 394.546 49.0092 394.351 49.5348 394.157L51.3791 393.68C52.1742 393.513 52.9779 393.396 53.786 393.33C54.7082 393.213 55.6304 393.271 56.6816 393.242C59.0276 393.356 61.36 393.681 63.6533 394.215C66.1985 394.789 68.9558 395.586 71.8975 396.462C74.8392 397.337 77.9931 398.242 81.3682 398.854C84.8917 399.545 88.4977 399.63 92.047 399.107C95.8558 398.491 99.6185 397.59 103.307 396.413C107.005 395.199 110.78 394.263 114.603 393.612C118.194 393.063 121.845 393.142 125.411 393.845C128.823 394.478 131.977 395.402 134.946 396.16C137.67 396.929 140.444 397.478 143.246 397.804C145.564 398.052 147.901 398.006 150.208 397.668C151.951 397.403 153.651 396.889 155.262 396.141C156.638 395.478 157.927 394.631 159.098 393.622Z" fill="#E0E0E0"/>
<path d="M318.598 382.592C318.598 382.592 318.044 382.057 316.901 381.308C315.26 380.304 313.432 379.69 311.543 379.509C308.739 379.251 305.915 379.475 303.179 380.17C300.071 380.841 296.659 381.902 292.924 382.116C289.189 382.33 285.713 381.211 282.633 380.423C281.18 380.008 279.705 379.683 278.216 379.451C276.921 379.277 275.613 379.257 274.315 379.392C272.425 379.543 270.607 380.213 269.04 381.337C268.493 381.789 267.975 382.28 267.491 382.806C267.876 382.18 268.363 381.63 268.929 381.182C270.492 379.963 272.342 379.219 274.278 379.032C275.601 378.871 276.938 378.871 278.262 379.032C279.772 379.234 281.269 379.536 282.743 379.937C285.842 380.715 289.245 381.814 292.887 381.581C296.53 381.347 299.933 380.345 303.031 379.694C305.813 379.01 308.683 378.819 311.524 379.13C313.45 379.347 315.303 380.029 316.938 381.123C317.375 381.423 317.783 381.768 318.155 382.154C318.318 382.282 318.466 382.429 318.598 382.592Z" fill="#E0E0E0"/>
<path d="M516.911 189.149H515.104V258.331H516.911V189.149Z" fill="#E0E0E0"/>
<path d="M521.245 189.149H519.438V258.331H521.245V189.149Z" fill="#E0E0E0"/>
<path d="M537.77 189.149H535.963V258.331H537.77V189.149Z" fill="#E0E0E0"/>
<path d="M499.952 189.149H498.145V258.331H499.952V189.149Z" fill="#E0E0E0"/>
<path d="M516.902 189.149H498.145V191.104H516.902V189.149Z" fill="#E0E0E0"/>
<path d="M559.755 193.857H431.61V196.113H559.755V193.857Z" fill="#E0E0E0"/>
<path d="M537.77 223.735H499.048V225.846H537.77V223.735Z" fill="#E0E0E0"/>
<path d="M537.236 197.248L535.87 196.359L519.757 223.908L521.123 224.796L537.236 197.248Z" fill="#E0E0E0"/>
<path d="M516.52 196.422L515.154 195.533L499.041 223.082L500.407 223.97L516.52 196.422Z" fill="#E0E0E0"/>
<path d="M546.494 184.286H517.759V193.867H546.494V184.286Z" fill="#E0E0E0"/>
<path d="M461.165 195.277L506.463 158.707L522.591 187.136L523.2 186.757L506.656 157.617L506.343 157.87L460.741 194.693L461.165 195.277Z" fill="#E0E0E0"/>
<path d="M497.711 195.325L506.536 156.684L516.957 196.852L497.711 195.325ZM498.587 194.654L516.025 196.055L506.582 159.66L498.587 194.654Z" fill="#E0E0E0"/>
<path d="M599.999 256.843H405.208V269.429H599.999V256.843Z" fill="#E0E0E0"/>
<path d="M454.913 231.069H473.9V257.242H454.913V231.069ZM473.172 231.808H455.65V256.503H473.172V231.808Z" fill="#E0E0E0"/>
<path d="M488.701 231.409H473.522V258.331H488.701V231.409Z" fill="#E0E0E0"/>
<path d="M360.169 241.544H363.323V120.638H360.169V241.544Z" fill="#E0E0E0"/>
<path d="M352.58 241.544H355.733V120.638H352.58V241.544Z" fill="#E0E0E0"/>
<path d="M323.706 241.544H326.86V120.638H323.706V241.544Z" fill="#E0E0E0"/>
<path d="M389.798 241.544H392.952V120.638H389.798V241.544Z" fill="#E0E0E0"/>
<path d="M360.169 124.053H392.952V120.639H360.169V124.053Z" fill="#E0E0E0"/>
<path d="M285.279 132.806L509.229 132.806V128.867L285.279 128.867V132.806Z" fill="#E0E0E0"/>
<path d="M323.706 184.773H391.375V181.096H323.706V184.773Z" fill="#E0E0E0"/>
<path d="M352.793 182.933L355.187 181.375L327.028 133.232L324.634 134.789L352.793 182.933Z" fill="#E0E0E0"/>
<path d="M388.636 183.885L391.026 182.313L362.601 134.231L360.21 135.803L388.636 183.885Z" fill="#E0E0E0"/>
<path d="M308.463 128.867H358.684V112.128H308.463V128.867Z" fill="#E0E0E0"/>
<path d="M457.578 131.357L378.428 67.4368L350.219 117.118L349.177 116.456L378.078 65.5402L378.622 65.9778L458.325 130.336L457.578 131.357Z" fill="#E0E0E0"/>
<path d="M360.077 134.1L378.29 63.9061L393.718 131.425L360.077 134.1ZM378.216 69.0707L361.709 132.68L392.187 130.258L378.216 69.0707Z" fill="#E0E0E0"/>
<path d="M134.19 354.465C134.19 354.465 133.536 354.114 132.346 353.492C130.725 352.575 128.948 352.003 127.117 351.809C125.847 351.771 124.576 351.875 123.327 352.121C121.962 352.344 120.561 352.617 119.002 352.986C115.987 353.667 112.648 354.649 109.006 354.718C105.363 354.786 102.016 353.638 99.0187 352.889C97.6027 352.501 96.1641 352.212 94.7122 352.023C93.4526 351.877 92.1816 351.877 90.922 352.023C89.089 352.199 87.3297 352.869 85.8132 353.969C85.2868 354.411 84.7849 354.885 84.3101 355.389C84.3909 355.225 84.4933 355.074 84.6144 354.941C84.9297 354.517 85.2955 354.138 85.7025 353.813C87.2084 352.608 88.9968 351.858 90.8759 351.644C92.1632 351.464 93.466 351.441 94.7583 351.576C96.2287 351.744 97.6862 352.021 99.1202 352.403C102.145 353.142 105.437 354.251 108.997 354.183C112.556 354.114 115.876 353.161 118.91 352.5C120.432 352.15 121.898 351.887 123.272 351.673C124.547 351.44 125.843 351.355 127.136 351.42C129.004 351.647 130.807 352.283 132.429 353.288C133.01 353.628 133.443 353.901 133.739 354.105C133.906 354.199 134.058 354.321 134.19 354.465Z" fill="#263238"/>
<path d="M588.601 316.396C588.601 316.396 588.047 315.852 586.904 315.113C585.27 314.101 583.443 313.483 581.555 313.303C578.751 313.045 575.926 313.272 573.191 313.975C570.074 314.636 566.671 315.696 562.937 315.92C559.202 316.144 555.716 315.015 552.645 314.218C551.189 313.801 549.711 313.476 548.219 313.245C546.924 313.079 545.616 313.063 544.318 313.197C542.43 313.342 540.614 314.013 539.052 315.142C538.519 315.618 538.012 316.125 537.531 316.659C537.921 316.036 538.411 315.49 538.979 315.044C540.535 313.817 542.383 313.07 544.318 312.885C545.642 312.725 546.978 312.725 548.302 312.885C549.811 313.088 551.308 313.386 552.783 313.78C555.882 314.558 559.239 315.657 562.927 315.434C566.616 315.21 569.982 314.189 573.117 313.547C575.898 312.853 578.77 312.663 581.611 312.983C583.538 313.193 585.391 313.876 587.024 314.976C587.463 315.274 587.874 315.616 588.25 315.998C588.49 316.241 588.619 316.377 588.601 316.396Z" fill="#263238"/>
<path d="M77.7902 325.967C77.7902 326.016 77.2369 325.432 76.0934 324.683C74.4563 323.679 72.6308 323.065 70.7448 322.884C67.9412 322.626 65.1165 322.849 62.3807 323.545C59.2638 324.216 55.8517 325.276 52.1261 325.49C48.4005 325.704 44.9055 324.586 41.8255 323.798C40.3727 323.382 38.8977 323.057 37.4082 322.825C36.1142 322.652 34.8057 322.632 33.5075 322.767C31.6181 322.918 29.7992 323.588 28.2326 324.712C27.6745 325.176 27.1447 325.676 26.6465 326.21C27.0316 325.584 27.5186 325.034 28.0851 324.586C29.6479 323.367 31.4979 322.623 33.4337 322.436C34.7572 322.275 36.0939 322.275 37.4175 322.436C38.928 322.638 40.425 322.94 41.8992 323.341C44.9977 324.119 48.3544 325.218 52.0431 324.985C55.7318 324.751 59.0885 323.749 62.2331 323.098C65.0149 322.414 67.8852 322.223 70.7264 322.534C72.6525 322.749 74.5052 323.431 76.1395 324.528C76.5798 324.827 76.9906 325.173 77.366 325.559C77.5199 325.68 77.662 325.816 77.7902 325.967Z" fill="#263238"/>
<path d="M549.159 356.604C548.893 356.556 548.631 356.484 548.375 356.39C547.859 356.244 547.112 355.992 546.153 355.671C544.225 355.029 541.477 353.959 538.001 352.938C536.112 352.378 534.185 351.972 532.237 351.722C530.007 351.445 527.754 351.445 525.524 351.722C520.793 352.266 515.712 353.793 510.216 354.533C507.536 354.931 504.817 354.931 502.138 354.533C499.546 354.163 497.084 353.609 494.76 353.093C490.103 352.033 485.843 351.294 482.246 351.488C479.403 351.556 476.604 352.238 474.02 353.492C473.331 353.859 472.663 354.268 472.019 354.717C471.804 354.894 471.576 355.054 471.337 355.194C472.12 354.448 472.995 353.817 473.937 353.317C476.525 351.973 479.354 351.227 482.237 351.128C485.926 350.885 490.195 351.605 494.862 352.636C499.528 353.667 504.72 354.922 510.188 354.027C515.629 353.288 520.719 351.78 525.496 351.245C527.76 350.963 530.047 350.963 532.311 351.245C534.275 351.519 536.217 351.949 538.121 352.529C541.597 353.609 544.327 354.727 546.236 355.447L548.431 356.254C548.684 356.345 548.928 356.462 549.159 356.604Z" fill="#263238"/>
<path d="M356.16 250.626H-0.00146484V273.638H356.16V250.626Z" fill="#263238"/>
<path d="M125.377 251.112H91.0723V203.649H125.377V251.112ZM91.9944 250.14H124.455V204.621H91.9944V250.14Z" fill="#263238"/>
<path d="M152.673 204.135H124.916V253.359H152.673V204.135Z" fill="#263238"/>
<path d="M204.241 73.5715H200.94V253.884H204.241V73.5715Z" fill="#263238"/>
<path d="M212.172 73.5715H208.871V253.884H212.172V73.5715Z" fill="#263238"/>
<path d="M242.392 73.5715H239.09V253.884H242.392V73.5715Z" fill="#263238"/>
<path d="M173.238 73.5715H169.937V253.884H173.238V73.5715Z" fill="#263238"/>
<path d="M204.232 73.5715H169.937V77.1507H204.232V73.5715Z" fill="#263238"/>
<path d="M282.589 82.1888H48.2832V86.303H282.589V82.1888Z" fill="#263238"/>
<path d="M242.392 136.821H171.587V140.672H242.392V136.821Z" fill="#263238"/>
<path d="M241.435 88.3629L238.932 86.7339L209.47 137.104L211.974 138.733L241.435 88.3629Z" fill="#263238"/>
<path d="M203.482 86.9077L200.979 85.2787L171.517 135.649L174.021 137.278L203.482 86.9077Z" fill="#263238"/>
<path d="M258.336 64.6722H205.791V82.189H258.336V64.6722Z" fill="#263238"/>
<path d="M102.212 84.6301L101.649 83.8618L185.447 16.1971L215.584 69.292L214.8 69.7978L185.189 17.6366L102.212 84.6301Z" fill="#263238"/>
<path d="M204.103 87.4507L169.365 84.6885L185.291 14.9619L204.103 87.4507ZM170.481 83.8034L202.831 86.3711L185.31 18.8718L170.481 83.8034Z" fill="#263238"/>
<path d="M32.4312 152.723L35.2253 136.733L52.4884 82.0333L53.3645 82.3445L36.1106 136.976L33.5378 151.731L90.8877 150.671L68.4328 82.3445L69.3088 82.0236L92.1787 151.614L32.4312 152.723Z" fill="#263238"/>
<path d="M40.5738 137.745H18.1558V166.466H40.5738V137.745Z" fill="#263238"/>
<path d="M103.273 137.745H40.5835V166.466H103.273V137.745Z" fill="#263238"/>
<path d="M29.8399 166.466C29.7015 166.466 29.6001 160.085 29.6001 152.227C29.6001 144.368 29.7015 137.988 29.8399 137.988C29.9782 137.988 30.0796 144.358 30.0796 152.227C30.0796 160.095 29.969 166.466 29.8399 166.466Z" fill="#455A64"/>
<path d="M40.5835 166.466C40.4544 166.466 40.3438 160.085 40.3438 152.227C40.3438 144.368 40.4544 137.988 40.5835 137.988C40.7126 137.988 40.8233 144.358 40.8233 152.227C40.8233 160.095 40.7126 166.466 40.5835 166.466Z" fill="#455A64"/>
<path d="M99.75 163.188C99.75 163.188 99.75 163.042 99.75 162.789C99.75 162.536 99.75 162.128 99.75 161.642C99.75 160.62 99.75 159.161 99.7039 157.284C99.7039 153.491 99.6578 148.025 99.6209 141.207L99.7777 141.382L43.2854 141.46C43.0641 141.693 43.5713 141.158 43.5252 141.217V146.897C43.5252 148.784 43.5252 150.641 43.5252 152.48V163.178L43.2208 162.984L83.6397 163.101L95.4251 163.169H98.5973H99.4273C99.5224 163.16 99.618 163.16 99.7132 163.169H99.4734H98.6711H95.5542L83.8149 163.237L43.2393 163.353H42.9995V146.819C42.9995 145.846 42.9995 144.932 42.9995 143.979V141.139L43.2485 140.876L99.7408 140.964H99.9068V141.129C99.9068 147.938 99.8423 153.491 99.8146 157.313C99.8146 159.171 99.8146 160.62 99.8146 161.632C99.8146 162.099 99.8146 162.468 99.8146 162.741C99.814 162.892 99.7923 163.043 99.75 163.188Z" fill="#455A64"/>
<path d="M47.6196 163.188C47.4813 163.188 47.3799 158.266 47.3799 152.197C47.3799 146.128 47.4813 141.207 47.6196 141.207C47.758 141.207 47.8594 146.128 47.8594 152.197C47.8594 158.266 47.7487 163.188 47.6196 163.188Z" fill="#455A64"/>
<path d="M52.9312 163.188C52.7928 163.188 52.6914 158.266 52.6914 152.197C52.6914 146.128 52.7928 141.207 52.9312 141.207C53.0695 141.207 53.1709 146.128 53.1709 152.197C53.1709 158.266 53.0603 163.188 52.9312 163.188Z" fill="#455A64"/>
<path d="M58.2432 163.188C58.1141 163.188 58.0034 158.266 58.0034 152.197C58.0034 146.128 58.1141 141.207 58.2432 141.207C58.3723 141.207 58.483 146.128 58.483 152.197C58.483 158.266 58.3723 163.188 58.2432 163.188Z" fill="#455A64"/>
<path d="M63.5552 163.188C63.4261 163.188 63.3154 158.266 63.3154 152.197C63.3154 146.128 63.4261 141.207 63.5552 141.207C63.6843 141.207 63.795 146.128 63.795 152.197C63.795 158.266 63.6935 163.188 63.5552 163.188Z" fill="#455A64"/>
<path d="M68.8662 163.188C68.7371 163.188 68.6265 158.266 68.6265 152.197C68.6265 146.128 68.7371 141.207 68.8662 141.207C68.9953 141.207 69.106 146.128 69.106 152.197C69.106 158.266 69.0414 163.188 68.8662 163.188Z" fill="#455A64"/>
<path d="M74.1875 163.188C74.0491 163.188 73.9385 158.266 73.9385 152.197C73.9385 146.128 74.0491 141.207 74.1875 141.207C74.3258 141.207 74.4272 146.128 74.4272 152.197C74.4272 158.266 74.3166 163.188 74.1875 163.188Z" fill="#455A64"/>
<path d="M79.499 163.188C79.3607 163.188 79.2593 158.266 79.2593 152.197C79.2593 146.128 79.3607 141.207 79.499 141.207C79.6374 141.207 79.7388 146.128 79.7388 152.197C79.7388 158.266 79.6281 163.188 79.499 163.188Z" fill="#455A64"/>
<path d="M84.8111 163.188C84.6727 163.188 84.5713 158.266 84.5713 152.197C84.5713 146.128 84.6727 141.207 84.8111 141.207C84.9494 141.207 85.0508 146.128 85.0508 152.197C85.0508 158.266 84.9402 163.188 84.8111 163.188Z" fill="#455A64"/>
<path d="M90.1226 163.188C89.9935 163.188 89.8828 158.266 89.8828 152.197C89.8828 146.128 89.9935 141.207 90.1226 141.207C90.2517 141.207 90.3623 146.128 90.3623 152.197C90.3623 158.266 90.2517 163.188 90.1226 163.188Z" fill="#455A64"/>
<path d="M95.4341 163.188C95.305 163.188 95.1943 158.266 95.1943 152.197C95.1943 146.128 95.305 141.207 95.4341 141.207C95.5632 141.207 95.6739 146.128 95.6739 152.197C95.6739 158.266 95.5724 163.188 95.4341 163.188Z" fill="#455A64"/>
<path d="M439.061 226.926H429.857V210.353H436.359L439.061 226.926Z" fill="#FF725E"/>
<path d="M244.445 235.164H222.027V263.885H244.445V235.164Z" fill="#FF725E"/>
<path opacity="0.4" d="M244.445 235.164H222.027V263.885H244.445V235.164Z" fill="white"/>
<path d="M307.144 235.164H244.455V263.885H307.144V235.164Z" fill="#FF725E"/>
<path opacity="0.2" d="M307.144 235.164H244.455V263.885H307.144V235.164Z" fill="white"/>
<path d="M233.702 263.885C233.573 263.885 233.462 257.505 233.462 249.646C233.462 241.787 233.573 235.417 233.702 235.417C233.831 235.417 233.942 241.787 233.942 249.646C233.942 257.505 233.841 263.885 233.702 263.885Z" fill="#263238"/>
<path d="M303.622 260.607C303.614 260.475 303.614 260.341 303.622 260.209C303.622 259.927 303.622 259.547 303.622 259.071C303.622 258.049 303.622 256.581 303.622 254.704C303.622 250.91 303.566 245.444 303.529 238.636L303.695 238.801L247.203 238.889C246.982 239.113 247.489 238.578 247.434 238.636V249.909C247.434 253.585 247.434 257.164 247.434 260.607L247.203 260.364L287.622 260.471L299.416 260.539H302.589H303.419H303.705H303.446H302.644H299.527L287.779 260.607L247.203 260.724H246.972V260.481C246.972 257.038 246.972 253.459 246.972 249.782V238.636C246.917 238.685 247.434 238.15 247.221 238.383L303.714 238.461H303.88V238.636C303.88 245.444 303.806 250.988 303.788 254.811C303.788 256.668 303.788 258.118 303.788 259.129C303.788 259.606 303.788 259.965 303.788 260.238C303.742 260.366 303.686 260.489 303.622 260.607Z" fill="#263238"/>
<path d="M251.481 260.608C251.352 260.608 251.242 255.686 251.242 249.617C251.242 243.548 251.352 238.636 251.481 238.636C251.611 238.636 251.721 243.548 251.721 249.617C251.721 255.686 251.657 260.608 251.481 260.608Z" fill="#263238"/>
<path d="M256.803 260.608C256.664 260.608 256.554 255.686 256.554 249.617C256.554 243.548 256.664 238.636 256.803 238.636C256.941 238.636 257.042 243.548 257.042 249.617C257.042 255.686 256.932 260.608 256.803 260.608Z" fill="#263238"/>
<path d="M262.114 260.608C261.976 260.608 261.875 255.686 261.875 249.617C261.875 243.548 261.976 238.636 262.114 238.636C262.253 238.636 262.354 243.548 262.354 249.617C262.354 255.686 262.243 260.608 262.114 260.608Z" fill="#263238"/>
<path d="M267.426 260.608C267.288 260.608 267.187 255.686 267.187 249.617C267.187 243.548 267.288 238.636 267.426 238.636C267.565 238.636 267.666 243.548 267.666 249.617C267.666 255.686 267.555 260.608 267.426 260.608Z" fill="#263238"/>
<path d="M272.738 260.608C272.609 260.608 272.498 255.686 272.498 249.617C272.498 243.548 272.609 238.636 272.738 238.636C272.867 238.636 272.978 243.548 272.978 249.617C272.978 255.686 272.867 260.608 272.738 260.608Z" fill="#263238"/>
<path d="M278.049 260.608C277.92 260.608 277.81 255.686 277.81 249.617C277.81 243.548 277.92 238.636 278.049 238.636C278.178 238.636 278.289 243.548 278.289 249.617C278.289 255.686 278.188 260.608 278.049 260.608Z" fill="#263238"/>
<path d="M283.361 260.608C283.232 260.608 283.122 255.686 283.122 249.617C283.122 243.548 283.232 238.636 283.361 238.636C283.49 238.636 283.601 243.548 283.601 249.617C283.601 255.686 283.5 260.608 283.361 260.608Z" fill="#263238"/>
<path d="M288.683 260.608C288.544 260.608 288.443 255.686 288.443 249.617C288.443 243.548 288.544 238.636 288.683 238.636C288.821 238.636 288.922 243.548 288.922 249.617C288.922 255.686 288.812 260.608 288.683 260.608Z" fill="#263238"/>
<path d="M293.994 260.608C293.855 260.608 293.754 255.686 293.754 249.617C293.754 243.548 293.855 238.636 293.994 238.636C294.132 238.636 294.233 243.548 294.233 249.617C294.233 255.686 294.123 260.608 293.994 260.608Z" fill="#263238"/>
<path d="M299.306 260.608C299.177 260.608 299.066 255.686 299.066 249.617C299.066 243.548 299.177 238.636 299.306 238.636C299.435 238.636 299.545 243.548 299.545 249.617C299.545 255.686 299.435 260.608 299.306 260.608Z" fill="#263238"/>
<path d="M318.524 177.887H296.106V206.608H318.524V177.887Z" fill="#FF725E"/>
<path opacity="0.4" d="M318.524 177.887H296.106V206.608H318.524V177.887Z" fill="white"/>
<path d="M381.213 177.887H318.524V206.608H381.213V177.887Z" fill="#FF725E"/>
<path opacity="0.2" d="M381.213 177.887H318.524V206.608H381.213V177.887Z" fill="white"/>
<path d="M307.78 206.608C307.651 206.608 307.541 200.228 307.541 192.369C307.541 184.51 307.651 178.13 307.78 178.13C307.909 178.13 308.02 184.51 308.02 192.369C308.02 200.228 307.909 206.608 307.78 206.608Z" fill="#263238"/>
<path d="M377.699 203.33C377.686 203.198 377.686 203.064 377.699 202.932C377.699 202.649 377.699 202.27 377.699 201.784C377.699 200.811 377.699 199.304 377.699 197.427C377.699 193.633 377.644 188.167 377.607 181.359L377.773 181.524L321.271 181.612L321.511 181.359V192.622C321.511 196.298 321.511 199.877 321.511 203.321L321.281 203.077L361.7 203.184L373.494 203.252H376.666H377.487H377.782H377.515H376.722H373.596L361.856 203.321L321.281 203.437H321.05V203.194C321.05 199.751 321.05 196.172 321.05 192.495V181.369C320.995 181.417 321.502 180.882 321.29 181.106L377.791 181.194H377.948V181.369C377.948 188.177 377.884 193.721 377.865 197.543C377.865 199.401 377.865 200.85 377.819 201.862C377.819 202.328 377.819 202.698 377.819 202.97C377.819 203.243 377.699 203.33 377.699 203.33Z" fill="#263238"/>
<path d="M325.56 203.33C325.431 203.33 325.32 198.409 325.32 192.34C325.32 186.271 325.431 181.359 325.56 181.359C325.689 181.359 325.8 186.271 325.8 192.34C325.8 198.409 325.689 203.33 325.56 203.33Z" fill="#263238"/>
<path d="M330.871 203.33C330.742 203.33 330.631 198.409 330.631 192.34C330.631 186.271 330.742 181.359 330.871 181.359C331 181.359 331.111 186.271 331.111 192.34C331.111 198.409 330.963 203.33 330.871 203.33Z" fill="#263238"/>
<path d="M336.183 203.33C336.054 203.33 335.943 198.409 335.943 192.34C335.943 186.271 336.054 181.359 336.183 181.359C336.312 181.359 336.423 186.271 336.423 192.34C336.423 198.409 336.321 203.33 336.183 203.33Z" fill="#263238"/>
<path d="M341.495 203.33C341.366 203.33 341.255 198.409 341.255 192.34C341.255 186.271 341.366 181.359 341.495 181.359C341.624 181.359 341.744 186.271 341.744 192.34C341.744 198.409 341.633 203.33 341.495 203.33Z" fill="#263238"/>
<path d="M346.816 203.33C346.678 203.33 346.576 198.409 346.576 192.34C346.576 186.271 346.678 181.359 346.816 181.359C346.954 181.359 347.056 186.271 347.056 192.34C347.056 198.409 346.945 203.33 346.816 203.33Z" fill="#263238"/>
<path d="M352.173 203.33C352.035 203.33 351.934 198.409 351.934 192.34C351.934 186.271 352.035 181.359 352.173 181.359C352.312 181.359 352.413 186.271 352.413 192.34C352.413 198.409 352.256 203.33 352.173 203.33Z" fill="#263238"/>
<path d="M357.439 203.33C357.31 203.33 357.2 198.409 357.2 192.34C357.2 186.271 357.31 181.359 357.439 181.359C357.569 181.359 357.679 186.271 357.679 192.34C357.679 198.409 357.569 203.33 357.439 203.33Z" fill="#263238"/>
<path d="M362.751 203.33C362.622 203.33 362.511 198.409 362.511 192.34C362.511 186.271 362.622 181.359 362.751 181.359C362.88 181.359 362.991 186.271 362.991 192.34C362.991 198.409 362.889 203.33 362.751 203.33Z" fill="#263238"/>
<path d="M368.063 203.33C367.933 203.33 367.823 198.409 367.823 192.34C367.823 186.271 367.933 181.359 368.063 181.359C368.192 181.359 368.302 186.271 368.302 192.34C368.302 198.409 368.201 203.33 368.063 203.33Z" fill="#263238"/>
<path d="M373.384 203.33C373.245 203.33 373.135 198.409 373.135 192.34C373.135 186.271 373.245 181.359 373.384 181.359C373.522 181.359 373.624 186.271 373.624 192.34C373.624 198.409 373.513 203.33 373.384 203.33Z" fill="#263238"/>
<path d="M125.522 249.695H103.104V278.416H125.522V249.695Z" fill="#FF725E"/>
<path opacity="0.4" d="M125.522 249.695H103.104V278.416H125.522V249.695Z" fill="white"/>
<path d="M188.211 249.695H125.522V278.416H188.211V249.695Z" fill="#FF725E"/>
<path opacity="0.2" d="M188.211 249.695H125.522V278.416H188.211V249.695Z" fill="white"/>
<path d="M114.778 278.416C114.649 278.416 114.539 272.045 114.539 264.177C114.539 256.308 114.649 249.948 114.778 249.948C114.907 249.948 115.018 256.318 115.018 264.177C115.018 272.036 114.907 278.416 114.778 278.416Z" fill="#263238"/>
<path d="M184.698 275.138C184.685 275.006 184.685 274.872 184.698 274.739C184.698 274.457 184.698 274.078 184.698 273.601C184.698 272.58 184.698 271.112 184.698 269.234C184.698 265.441 184.642 259.975 184.606 253.167L184.772 253.332L128.27 253.42L128.51 253.167V264.439C128.51 268.116 128.51 271.695 128.51 275.138L128.279 274.895L168.698 275.012L180.493 275.08H183.665H184.486H184.781H184.513H183.72H180.594L168.855 275.148L128.279 275.265H128.049V275.021C128.049 271.578 128.049 267.999 128.049 264.323V253.167C127.993 253.167 128.501 252.681 128.288 252.914L184.79 252.992H184.947V253.167C184.947 259.975 184.882 265.519 184.864 269.341C184.864 271.199 184.864 272.648 184.818 273.66C184.818 274.136 184.818 274.496 184.818 274.769C184.818 275.041 184.698 275.138 184.698 275.138Z" fill="#263238"/>
<path d="M132.558 275.138C132.42 275.138 132.318 270.217 132.318 264.148C132.318 258.079 132.42 253.167 132.558 253.167C132.696 253.167 132.798 258.03 132.798 264.148C132.798 270.266 132.696 275.138 132.558 275.138Z" fill="#263238"/>
<path d="M137.87 275.138C137.741 275.138 137.63 270.217 137.63 264.148C137.63 258.079 137.741 253.167 137.87 253.167C137.999 253.167 138.11 258.03 138.11 264.148C138.11 270.266 137.999 275.138 137.87 275.138Z" fill="#263238"/>
<path d="M143.181 275.138C143.052 275.138 142.941 270.217 142.941 264.148C142.941 258.079 143.052 253.167 143.181 253.167C143.31 253.167 143.421 258.03 143.421 264.148C143.421 270.266 143.319 275.138 143.181 275.138Z" fill="#263238"/>
<path d="M148.493 275.138C148.364 275.138 148.253 270.217 148.253 264.148C148.253 258.079 148.364 253.167 148.493 253.167C148.622 253.167 148.733 258.03 148.733 264.148C148.733 270.266 148.632 275.138 148.493 275.138Z" fill="#263238"/>
<path d="M153.814 275.138C153.676 275.138 153.575 270.217 153.575 264.148C153.575 258.079 153.676 253.167 153.814 253.167C153.953 253.167 154.054 258.03 154.054 264.148C154.054 270.266 153.907 275.138 153.814 275.138Z" fill="#263238"/>
<path d="M159.126 275.138C158.988 275.138 158.886 270.217 158.886 264.148C158.886 258.079 158.988 253.167 159.126 253.167C159.264 253.167 159.366 258.03 159.366 264.148C159.366 270.266 159.255 275.138 159.126 275.138Z" fill="#263238"/>
<path d="M164.438 275.138C164.308 275.138 164.198 270.217 164.198 264.148C164.198 258.079 164.308 253.167 164.438 253.167C164.567 253.167 164.677 258.03 164.677 264.148C164.677 270.266 164.567 275.138 164.438 275.138Z" fill="#263238"/>
<path d="M169.75 275.138C169.62 275.138 169.51 270.217 169.51 264.148C169.51 258.079 169.62 253.167 169.75 253.167C169.879 253.167 169.989 258.03 169.989 264.148C169.989 270.266 169.879 275.138 169.75 275.138Z" fill="#263238"/>
<path d="M175.061 275.138C174.932 275.138 174.821 270.217 174.821 264.148C174.821 258.079 174.932 253.167 175.061 253.167C175.19 253.167 175.301 258.03 175.301 264.148C175.301 270.266 175.199 275.138 175.061 275.138Z" fill="#263238"/>
<path d="M180.373 275.138C180.244 275.138 180.133 270.217 180.133 264.148C180.133 258.079 180.244 253.167 180.373 253.167C180.502 253.167 180.613 258.03 180.613 264.148C180.613 270.266 180.511 275.138 180.373 275.138Z" fill="#263238"/>
<path d="M270.064 206.764H247.646V235.485H270.064V206.764Z" fill="#263238"/>
<path d="M332.762 206.764H270.072V235.485H332.762V206.764Z" fill="#263238"/>
<path d="M259.32 235.475C259.191 235.475 259.08 229.105 259.08 221.246C259.08 213.387 259.191 207.007 259.32 207.007C259.449 207.007 259.56 213.377 259.56 221.246C259.56 229.114 259.458 235.475 259.32 235.475Z" fill="#455A64"/>
<path d="M270.1 235.475C269.962 235.475 269.86 229.105 269.86 221.246C269.86 213.387 269.962 207.007 270.1 207.007C270.238 207.007 270.34 213.377 270.34 221.246C270.34 229.114 270.202 235.475 270.1 235.475Z" fill="#455A64"/>
<path d="M329.24 232.197C329.232 232.065 329.232 231.931 329.24 231.799C329.24 231.517 329.24 231.147 329.24 230.661C329.24 229.639 329.24 228.181 329.24 226.294C329.24 222.5 329.184 217.034 329.147 210.226L329.313 210.401L272.821 210.479C272.6 210.703 273.107 210.168 273.052 210.226V221.479C273.052 225.156 273.052 228.735 273.052 232.178L272.821 231.935L313.24 232.052L325.034 232.12H328.207H329.027H329.323H329.064H328.197H325.071L313.332 232.188L272.756 232.295H272.526V232.052C272.526 228.608 272.526 225.029 272.526 221.353V210.246L272.775 209.993L329.267 210.071H329.433V210.246C329.433 217.102 329.359 222.607 329.341 226.42C329.341 228.288 329.341 229.737 329.341 230.748C329.341 231.215 329.341 231.585 329.341 231.857C329.316 231.973 329.282 232.087 329.24 232.197Z" fill="#455A64"/>
<path d="M277.1 232.198C276.971 232.198 276.86 227.276 276.86 221.217C276.86 215.157 276.971 210.226 277.1 210.226C277.229 210.226 277.339 215.148 277.339 221.217C277.339 227.286 277.238 232.198 277.1 232.198Z" fill="#455A64"/>
<path d="M282.411 232.198C282.282 232.198 282.171 227.276 282.171 221.217C282.171 215.157 282.282 210.226 282.411 210.226C282.54 210.226 282.651 215.148 282.651 221.217C282.651 227.286 282.549 232.198 282.411 232.198Z" fill="#455A64"/>
<path d="M287.732 232.198C287.594 232.198 287.493 227.276 287.493 221.217C287.493 215.157 287.594 210.226 287.732 210.226C287.871 210.226 287.972 215.148 287.972 221.217C287.972 227.286 287.862 232.198 287.732 232.198Z" fill="#455A64"/>
<path d="M293.044 232.198C292.906 232.198 292.804 227.276 292.804 221.217C292.804 215.157 292.906 210.226 293.044 210.226C293.182 210.226 293.284 215.148 293.284 221.217C293.284 227.286 293.155 232.198 293.044 232.198Z" fill="#455A64"/>
<path d="M298.355 232.198C298.226 232.198 298.116 227.276 298.116 221.217C298.116 215.157 298.226 210.226 298.355 210.226C298.485 210.226 298.595 215.148 298.595 221.217C298.595 227.286 298.485 232.198 298.355 232.198Z" fill="#455A64"/>
<path d="M303.667 232.198C303.538 232.198 303.428 227.276 303.428 221.217C303.428 215.157 303.538 210.226 303.667 210.226C303.797 210.226 303.907 215.148 303.907 221.217C303.907 227.286 303.806 232.198 303.667 232.198Z" fill="#455A64"/>
<path d="M308.979 232.198C308.85 232.198 308.739 227.276 308.739 221.217C308.739 215.157 308.85 210.226 308.979 210.226C309.108 210.226 309.219 215.148 309.219 221.217C309.219 227.286 309.117 232.198 308.979 232.198Z" fill="#455A64"/>
<path d="M314.291 232.198C314.161 232.198 314.051 227.276 314.051 221.217C314.051 215.157 314.161 210.226 314.291 210.226C314.42 210.226 314.54 215.148 314.54 221.217C314.54 227.286 314.429 232.198 314.291 232.198Z" fill="#455A64"/>
<path d="M319.612 232.198C319.474 232.198 319.372 227.276 319.372 221.217C319.372 215.157 319.474 210.226 319.612 210.226C319.75 210.226 319.852 215.148 319.852 221.217C319.852 227.286 319.741 232.198 319.612 232.198Z" fill="#455A64"/>
<path d="M324.923 232.198C324.785 232.198 324.684 227.276 324.684 221.217C324.684 215.157 324.785 210.226 324.923 210.226C325.062 210.226 325.163 215.148 325.163 221.217C325.163 227.286 325.052 232.198 324.923 232.198Z" fill="#455A64"/>
<path d="M215.83 264.809H193.412V293.53H215.83V264.809Z" fill="#FF725E"/>
<path d="M278.529 264.809H215.839V293.53H278.529V264.809Z" fill="#FF725E"/>
<path opacity="0.4" d="M278.529 264.809H215.839V293.53H278.529V264.809Z" fill="black"/>
<path d="M205.096 293.53C204.958 293.53 204.856 287.16 204.856 279.291C204.856 271.423 204.958 265.062 205.096 265.062C205.235 265.062 205.336 271.433 205.336 279.291C205.336 287.15 205.225 293.53 205.096 293.53Z" fill="#263238"/>
<path d="M275.006 290.253C275.006 290.253 275.006 290.107 275.006 289.854C275.006 289.601 275.006 289.193 275.006 288.716C275.006 287.743 275.006 286.226 274.96 284.349C274.96 280.556 274.914 275.09 274.877 268.281L275.034 268.447L218.542 268.534L218.781 268.281V271.141C218.781 272.113 218.781 273.037 218.781 273.971V290.253L218.551 290.01L258.97 290.126L270.755 290.194H273.927H274.757C274.852 290.186 274.948 290.186 275.043 290.194H274.711H273.909H270.792L259.053 290.262L218.477 290.379H218.237V273.845C218.237 272.872 218.237 271.958 218.237 271.014V268.155C218.191 268.204 218.698 267.669 218.486 267.902L274.979 267.98H275.145V268.155C275.145 274.963 275.08 280.507 275.052 284.329C275.052 286.187 275.052 287.636 275.052 288.648C275.052 289.124 275.052 289.484 275.052 289.757C275.064 289.924 275.048 290.091 275.006 290.253Z" fill="#263238"/>
<path d="M222.876 290.253C222.737 290.253 222.636 285.331 222.636 279.262C222.636 273.193 222.737 268.281 222.876 268.281C223.014 268.281 223.115 273.193 223.115 279.262C223.115 285.331 223.005 290.253 222.876 290.253Z" fill="#263238"/>
<path d="M228.187 290.253C228.049 290.253 227.948 285.331 227.948 279.262C227.948 273.193 228.049 268.281 228.187 268.281C228.326 268.281 228.427 273.193 228.427 279.262C228.427 285.331 228.317 290.253 228.187 290.253Z" fill="#263238"/>
<path d="M233.5 290.253C233.37 290.253 233.26 285.331 233.26 279.262C233.26 273.193 233.37 268.281 233.5 268.281C233.629 268.281 233.739 273.193 233.739 279.262C233.739 285.331 233.629 290.253 233.5 290.253Z" fill="#263238"/>
<path d="M238.811 290.253C238.682 290.253 238.571 285.331 238.571 279.262C238.571 273.193 238.682 268.281 238.811 268.281C238.94 268.281 239.051 273.193 239.051 279.262C239.051 285.331 238.949 290.253 238.811 290.253Z" fill="#263238"/>
<path d="M244.123 290.253C243.993 290.253 243.883 285.331 243.883 279.262C243.883 273.193 243.993 268.281 244.123 268.281C244.252 268.281 244.362 273.193 244.362 279.262C244.362 285.331 244.279 290.253 244.123 290.253Z" fill="#263238"/>
<path d="M249.435 290.253C249.305 290.253 249.195 285.331 249.195 279.262C249.195 273.193 249.305 268.281 249.435 268.281C249.564 268.281 249.684 273.193 249.684 279.262C249.684 285.331 249.573 290.253 249.435 290.253Z" fill="#263238"/>
<path d="M254.755 290.253C254.617 290.253 254.516 285.331 254.516 279.262C254.516 273.193 254.617 268.281 254.755 268.281C254.894 268.281 254.995 273.193 254.995 279.262C254.995 285.331 254.884 290.253 254.755 290.253Z" fill="#263238"/>
<path d="M260.067 290.253C259.929 290.253 259.827 285.331 259.827 279.262C259.827 273.193 259.929 268.281 260.067 268.281C260.205 268.281 260.307 273.193 260.307 279.262C260.307 285.331 260.196 290.253 260.067 290.253Z" fill="#263238"/>
<path d="M265.379 290.253C265.25 290.253 265.139 285.331 265.139 279.262C265.139 273.193 265.25 268.281 265.379 268.281C265.508 268.281 265.619 273.193 265.619 279.262C265.619 285.331 265.49 290.253 265.379 290.253Z" fill="#263238"/>
<path d="M270.69 290.253C270.561 290.253 270.451 285.331 270.451 279.262C270.451 273.193 270.561 268.281 270.69 268.281C270.82 268.281 270.93 273.193 270.93 279.262C270.93 285.331 270.829 290.253 270.69 290.253Z" fill="#263238"/>
<path d="M287.483 263.875H265.065V292.597H287.483V263.875Z" fill="#263238"/>
<path d="M350.172 263.875H287.483V292.597H350.172V263.875Z" fill="#263238"/>
<path d="M276.74 292.597C276.602 292.597 276.5 286.216 276.5 278.357C276.5 270.499 276.602 264.118 276.74 264.118C276.879 264.118 276.98 270.489 276.98 278.357C276.98 286.226 276.869 292.597 276.74 292.597Z" fill="#455A64"/>
<path d="M287.483 292.597C287.354 292.597 287.244 286.216 287.244 278.357C287.244 270.499 287.354 264.118 287.483 264.118C287.613 264.118 287.723 270.489 287.723 278.357C287.723 286.226 287.622 292.597 287.483 292.597Z" fill="#455A64"/>
<path d="M346.641 289.319C346.641 289.319 346.641 289.173 346.641 288.92C346.641 288.667 346.641 288.259 346.641 287.772C346.641 286.751 346.641 285.292 346.595 283.415C346.595 279.622 346.549 274.156 346.512 267.338L346.669 267.513L290.176 267.6L290.416 267.348V273.028C290.416 274.915 290.416 276.772 290.416 278.61V289.309L290.185 289.066L330.604 289.173L342.39 289.241H345.562H346.392H346.678H346.42H345.617H342.5L330.761 289.309L290.185 289.426H289.955V267.357C289.9 267.406 290.407 266.871 290.195 267.095L346.687 267.182H346.853V267.348C346.853 274.156 346.788 279.71 346.761 283.532C346.761 285.39 346.761 286.839 346.761 287.85C346.761 288.317 346.761 288.687 346.761 288.959C346.735 289.084 346.695 289.205 346.641 289.319Z" fill="#455A64"/>
<path d="M294.519 289.319C294.381 289.319 294.279 284.397 294.279 278.328C294.279 272.259 294.381 267.338 294.519 267.338C294.657 267.338 294.759 272.259 294.759 278.328C294.759 284.397 294.648 289.319 294.519 289.319Z" fill="#455A64"/>
<path d="M299.831 289.319C299.693 289.319 299.591 284.397 299.591 278.328C299.591 272.259 299.693 267.338 299.831 267.338C299.969 267.338 300.071 272.259 300.071 278.328C300.071 284.397 299.96 289.319 299.831 289.319Z" fill="#455A64"/>
<path d="M305.143 289.319C305.014 289.319 304.903 284.397 304.903 278.328C304.903 272.259 305.014 267.338 305.143 267.338C305.272 267.338 305.383 272.259 305.383 278.328C305.383 284.397 305.272 289.319 305.143 289.319Z" fill="#455A64"/>
<path d="M310.455 289.319C310.326 289.319 310.215 284.397 310.215 278.328C310.215 272.259 310.326 267.338 310.455 267.338C310.584 267.338 310.694 272.259 310.694 278.328C310.694 284.397 310.593 289.319 310.455 289.319Z" fill="#455A64"/>
<path d="M315.766 289.319C315.637 289.319 315.526 284.397 315.526 278.328C315.526 272.259 315.637 267.338 315.766 267.338C315.895 267.338 316.006 272.259 316.006 278.328C316.006 284.397 315.904 289.319 315.766 289.319Z" fill="#455A64"/>
<path d="M321.087 289.319C320.949 289.319 320.848 284.397 320.848 278.328C320.848 272.259 320.949 267.338 321.087 267.338C321.226 267.338 321.327 272.259 321.327 278.328C321.327 284.397 321.217 289.319 321.087 289.319Z" fill="#455A64"/>
<path d="M326.399 289.319C326.261 289.319 326.159 284.397 326.159 278.328C326.159 272.259 326.261 267.338 326.399 267.338C326.537 267.338 326.639 272.259 326.639 278.328C326.639 284.397 326.528 289.319 326.399 289.319Z" fill="#455A64"/>
<path d="M331.711 289.319C331.582 289.319 331.471 284.397 331.471 278.328C331.471 272.259 331.582 267.338 331.711 267.338C331.84 267.338 331.951 272.259 331.951 278.328C331.951 284.397 331.886 289.319 331.711 289.319Z" fill="#455A64"/>
<path d="M337.022 289.319C336.893 289.319 336.783 284.397 336.783 278.328C336.783 272.259 336.893 267.338 337.022 267.338C337.152 267.338 337.262 272.259 337.262 278.328C337.262 284.397 337.152 289.319 337.022 289.319Z" fill="#455A64"/>
<path d="M342.334 289.319C342.205 289.319 342.094 284.397 342.094 278.328C342.094 272.259 342.205 267.338 342.334 267.338C342.463 267.338 342.574 272.259 342.574 278.328C342.574 284.397 342.472 289.319 342.334 289.319Z" fill="#455A64"/>
<path d="M305.106 206.88H282.688V235.602H305.106V206.88Z" fill="#455A64"/>
<path d="M367.795 206.88H305.106V235.602H367.795V206.88Z" fill="#455A64"/>
<path d="M294.363 235.602C294.234 235.602 294.123 229.221 294.123 221.363C294.123 213.504 294.234 207.124 294.363 207.124C294.492 207.124 294.603 213.504 294.603 221.363C294.603 229.221 294.501 235.602 294.363 235.602Z" fill="#263238"/>
<path d="M305.143 235.602C305.014 235.602 304.903 229.221 304.903 221.363C304.903 213.504 305.014 207.124 305.143 207.124C305.272 207.124 305.383 213.504 305.383 221.363C305.383 229.221 305.245 235.602 305.143 235.602Z" fill="#263238"/>
<path d="M364.282 232.324C364.275 232.191 364.275 232.058 364.282 231.925C364.282 231.643 364.282 231.264 364.282 230.777C364.282 229.805 364.282 228.297 364.282 226.42C364.282 222.627 364.227 217.161 364.19 210.353L364.356 210.518L307.854 210.605L308.094 210.353V221.625C308.094 225.302 308.094 228.881 308.094 232.324L307.863 232.081L348.282 232.188L360.077 232.256H363.249H364.07H364.365H364.097H363.304H360.178L348.439 232.324L307.863 232.441H307.633V232.197C307.633 228.754 307.633 225.175 307.633 221.499V210.353L307.873 210.1L364.374 210.178H364.54V210.353C364.494 217.161 364.466 222.705 364.448 226.527C364.448 228.385 364.448 229.834 364.448 230.846C364.448 231.322 364.448 231.682 364.448 231.954C364.448 232.227 364.282 232.324 364.282 232.324Z" fill="#263238"/>
<path d="M312.142 232.324C312.013 232.324 311.902 227.402 311.902 221.333C311.902 215.264 312.013 210.353 312.142 210.353C312.271 210.353 312.382 215.264 312.382 221.333C312.382 227.402 312.271 232.324 312.142 232.324Z" fill="#263238"/>
<path d="M317.454 232.324C317.325 232.324 317.214 227.402 317.214 221.333C317.214 215.264 317.325 210.353 317.454 210.353C317.583 210.353 317.693 215.264 317.693 221.333C317.693 227.402 317.592 232.324 317.454 232.324Z" fill="#263238"/>
<path d="M322.766 232.324C322.637 232.324 322.526 227.402 322.526 221.333C322.526 215.264 322.637 210.353 322.766 210.353C322.895 210.353 323.005 215.264 323.005 221.333C323.005 227.402 322.904 232.324 322.766 232.324Z" fill="#263238"/>
<path d="M328.086 232.324C327.948 232.324 327.847 227.402 327.847 221.333C327.847 215.264 327.948 210.353 328.086 210.353C328.225 210.353 328.326 215.264 328.326 221.333C328.326 227.402 328.197 232.324 328.086 232.324Z" fill="#263238"/>
<path d="M333.398 232.324C333.26 232.324 333.159 227.402 333.159 221.333C333.159 215.264 333.26 210.353 333.398 210.353C333.537 210.353 333.638 215.264 333.638 221.333C333.638 227.402 333.528 232.324 333.398 232.324Z" fill="#263238"/>
<path d="M338.709 232.324C338.58 232.324 338.47 227.402 338.47 221.333C338.47 215.264 338.58 210.353 338.709 210.353C338.839 210.353 338.949 215.264 338.949 221.333C338.949 227.402 338.839 232.324 338.709 232.324Z" fill="#263238"/>
<path d="M344.022 232.324C343.893 232.324 343.782 227.402 343.782 221.333C343.782 215.264 343.893 210.353 344.022 210.353C344.151 210.353 344.262 215.264 344.262 221.333C344.262 227.402 344.16 232.324 344.022 232.324Z" fill="#263238"/>
<path d="M349.334 232.324C349.204 232.324 349.094 227.402 349.094 221.333C349.094 215.264 349.204 210.353 349.334 210.353C349.463 210.353 349.573 215.264 349.573 221.333C349.573 227.402 349.472 232.324 349.334 232.324Z" fill="#263238"/>
<path d="M354.654 232.324C354.516 232.324 354.405 227.402 354.405 221.333C354.405 215.264 354.516 210.353 354.654 210.353C354.793 210.353 354.894 215.264 354.894 221.333C354.894 227.402 354.783 232.324 354.654 232.324Z" fill="#263238"/>
<path d="M359.966 232.324C359.828 232.324 359.726 227.402 359.726 221.333C359.726 215.264 359.828 210.353 359.966 210.353C360.104 210.353 360.206 215.264 360.206 221.333C360.206 227.402 360.095 232.324 359.966 232.324Z" fill="#263238"/>
<path d="M271.548 235.164H249.13V263.885H271.548V235.164Z" fill="#FF725E"/>
<path d="M334.247 235.164H271.558V263.885H334.247V235.164Z" fill="#FF725E"/>
<path opacity="0.4" d="M334.247 235.164H271.558V263.885H334.247V235.164Z" fill="black"/>
<path d="M260.805 263.885C260.676 263.885 260.565 257.505 260.565 249.646C260.565 241.787 260.676 235.417 260.805 235.417C260.934 235.417 261.054 241.787 261.054 249.646C261.054 257.505 260.943 263.885 260.805 263.885Z" fill="#263238"/>
<path d="M330.724 260.607C330.724 260.607 330.724 260.462 330.724 260.209C330.724 259.956 330.724 259.547 330.724 259.071C330.724 258.049 330.724 256.581 330.724 254.704C330.724 250.91 330.668 245.444 330.632 238.636L330.798 238.801L274.305 238.889C274.084 239.113 274.591 238.578 274.536 238.636V249.909C274.536 253.585 274.536 257.164 274.536 260.607L274.305 260.364L314.724 260.471L326.519 260.539H329.691H330.521H330.807H330.549H329.746H326.629L314.881 260.607L274.305 260.724H274.075V249.909C274.075 248.07 274.075 246.213 274.075 244.326V238.636C274.075 238.685 274.536 238.15 274.324 238.383L330.816 238.461H330.982V238.636C330.982 245.444 330.908 250.988 330.89 254.811C330.89 256.668 330.89 258.118 330.89 259.129C330.89 259.606 330.89 259.965 330.89 260.238C330.844 260.366 330.788 260.489 330.724 260.607Z" fill="#263238"/>
<path d="M278.584 260.608C278.455 260.608 278.344 255.686 278.344 249.617C278.344 243.548 278.455 238.636 278.584 238.636C278.713 238.636 278.824 243.548 278.824 249.617C278.824 255.686 278.722 260.608 278.584 260.608Z" fill="#263238"/>
<path d="M283.933 260.608C283.795 260.608 283.693 255.686 283.693 249.617C283.693 243.548 283.795 238.636 283.933 238.636C284.071 238.636 284.173 243.548 284.173 249.617C284.173 255.686 284.035 260.608 283.933 260.608Z" fill="#263238"/>
<path d="M289.217 260.608C289.078 260.608 288.977 255.686 288.977 249.617C288.977 243.548 289.078 238.636 289.217 238.636C289.355 238.636 289.457 243.548 289.457 249.617C289.457 255.686 289.346 260.608 289.217 260.608Z" fill="#263238"/>
<path d="M294.529 260.608C294.4 260.608 294.289 255.686 294.289 249.617C294.289 243.548 294.4 238.636 294.529 238.636C294.658 238.636 294.769 243.548 294.769 249.617C294.769 255.686 294.658 260.608 294.529 260.608Z" fill="#263238"/>
<path d="M299.84 260.608C299.711 260.608 299.601 255.686 299.601 249.617C299.601 243.548 299.711 238.636 299.84 238.636C299.969 238.636 300.08 243.548 300.08 249.617C300.08 255.686 299.969 260.608 299.84 260.608Z" fill="#263238"/>
<path d="M305.143 260.608C305.014 260.608 304.903 255.686 304.903 249.617C304.903 243.548 305.014 238.636 305.143 238.636C305.272 238.636 305.383 243.548 305.383 249.617C305.383 255.686 305.291 260.608 305.143 260.608Z" fill="#263238"/>
<path d="M310.464 260.608C310.335 260.608 310.224 255.686 310.224 249.617C310.224 243.548 310.335 238.636 310.464 238.636C310.593 238.636 310.713 243.548 310.713 249.617C310.713 255.686 310.602 260.608 310.464 260.608Z" fill="#263238"/>
<path d="M315.785 260.608C315.646 260.608 315.545 255.686 315.545 249.617C315.545 243.548 315.646 238.636 315.785 238.636C315.923 238.636 316.024 243.548 316.024 249.617C316.024 255.686 315.914 260.608 315.785 260.608Z" fill="#263238"/>
<path d="M321.096 260.608C320.958 260.608 320.856 255.686 320.856 249.617C320.856 243.548 320.958 238.636 321.096 238.636C321.235 238.636 321.336 243.548 321.336 249.617C321.336 255.686 321.225 260.608 321.096 260.608Z" fill="#263238"/>
<path d="M326.408 260.608C326.279 260.608 326.168 255.686 326.168 249.617C326.168 243.548 326.279 238.636 326.408 238.636C326.537 238.636 326.648 243.548 326.648 249.617C326.648 255.686 326.537 260.608 326.408 260.608Z" fill="#263238"/>
<path d="M334.56 235.047H312.142V263.768H334.56V235.047Z" fill="#455A64"/>
<path d="M397.249 235.047H334.56V263.768H397.249V235.047Z" fill="#455A64"/>
<path d="M323.817 263.759C323.688 263.759 323.577 257.388 323.577 249.529C323.577 241.671 323.688 235.29 323.817 235.29C323.946 235.29 324.057 241.661 324.057 249.529C324.057 257.398 323.946 263.759 323.817 263.759Z" fill="#263238"/>
<path d="M334.56 263.759C334.431 263.759 334.32 257.388 334.32 249.529C334.32 241.671 334.431 235.29 334.56 235.29C334.689 235.29 334.8 241.661 334.8 249.529C334.8 257.398 334.698 263.759 334.56 263.759Z" fill="#263238"/>
<path d="M393.736 260.481C393.722 260.348 393.722 260.215 393.736 260.082C393.736 259.8 393.736 259.43 393.736 258.944C393.736 257.923 393.736 256.464 393.736 254.587C393.736 250.784 393.681 245.318 393.644 238.51L393.81 238.685L337.308 238.762L337.548 238.51V249.772C337.548 253.439 337.548 257.018 337.548 260.471L337.317 260.228L377.736 260.345L389.531 260.413H392.703H393.524H393.819H393.552H392.759H389.632L377.893 260.481L337.317 260.588H337.087V260.345C337.087 256.902 337.087 253.322 337.087 249.646V238.529L337.327 238.276L393.828 238.354H393.985V238.529C393.985 245.386 393.92 250.891 393.902 254.704C393.902 256.571 393.902 258.02 393.902 259.032C393.902 259.499 393.902 259.868 393.902 260.14C393.902 260.413 393.736 260.491 393.736 260.481Z" fill="#263238"/>
<path d="M341.596 260.481C341.467 260.481 341.356 255.56 341.356 249.5C341.356 243.441 341.467 238.51 341.596 238.51C341.725 238.51 341.836 243.431 341.836 249.5C341.836 255.569 341.725 260.481 341.596 260.481Z" fill="#263238"/>
<path d="M346.908 260.481C346.779 260.481 346.668 255.56 346.668 249.5C346.668 243.441 346.779 238.51 346.908 238.51C347.037 238.51 347.148 243.431 347.148 249.5C347.148 255.569 347.037 260.481 346.908 260.481Z" fill="#263238"/>
<path d="M352.22 260.481C352.091 260.481 351.98 255.56 351.98 249.5C351.98 243.441 352.091 238.51 352.22 238.51C352.349 238.51 352.46 243.431 352.46 249.5C352.46 255.569 352.358 260.481 352.22 260.481Z" fill="#263238"/>
<path d="M357.531 260.481C357.402 260.481 357.292 255.56 357.292 249.5C357.292 243.441 357.402 238.51 357.531 238.51C357.66 238.51 357.771 243.431 357.771 249.5C357.771 255.569 357.706 260.481 357.531 260.481Z" fill="#263238"/>
<path d="M362.853 260.481C362.714 260.481 362.613 255.56 362.613 249.5C362.613 243.441 362.714 238.51 362.853 238.51C362.991 238.51 363.092 243.431 363.092 249.5C363.092 255.569 362.982 260.481 362.853 260.481Z" fill="#263238"/>
<path d="M368.165 260.481C368.026 260.481 367.925 255.56 367.925 249.5C367.925 243.441 368.026 238.51 368.165 238.51C368.303 238.51 368.404 243.431 368.404 249.5C368.404 255.569 368.294 260.481 368.165 260.481Z" fill="#263238"/>
<path d="M373.476 260.481C373.347 260.481 373.236 255.56 373.236 249.5C373.236 243.441 373.347 238.51 373.476 238.51C373.605 238.51 373.715 243.431 373.715 249.5C373.715 255.569 373.605 260.481 373.476 260.481Z" fill="#263238"/>
<path d="M378.788 260.481C378.658 260.481 378.548 255.56 378.548 249.5C378.548 243.441 378.658 238.51 378.788 238.51C378.917 238.51 379.027 243.431 379.027 249.5C379.027 255.569 378.917 260.481 378.788 260.481Z" fill="#263238"/>
<path d="M384.099 260.481C383.97 260.481 383.859 255.56 383.859 249.5C383.859 243.441 383.97 238.51 384.099 238.51C384.228 238.51 384.339 243.431 384.339 249.5C384.339 255.569 384.237 260.481 384.099 260.481Z" fill="#263238"/>
<path d="M389.411 260.481C389.282 260.481 389.171 255.56 389.171 249.5C389.171 243.441 389.282 238.51 389.411 238.51C389.54 238.51 389.66 243.431 389.66 249.5C389.66 255.569 389.549 260.481 389.411 260.481Z" fill="#263238"/>
<path d="M136.726 191.591H114.308V220.312H136.726V191.591Z" fill="#455A64"/>
<path d="M199.425 191.591H136.736V220.312H199.425V191.591Z" fill="#455A64"/>
<path d="M125.992 220.302C125.854 220.302 125.752 213.932 125.752 206.073C125.752 198.214 125.854 191.834 125.992 191.834C126.131 191.834 126.232 198.204 126.232 206.073C126.232 213.941 126.121 220.302 125.992 220.302Z" fill="#263238"/>
<path d="M136.736 220.302C136.607 220.302 136.496 213.932 136.496 206.073C136.496 198.214 136.607 191.834 136.736 191.834C136.865 191.834 136.976 198.204 136.976 206.073C136.976 213.941 136.865 220.302 136.736 220.302Z" fill="#263238"/>
<path d="M195.902 217.025C195.902 217.025 195.902 216.889 195.902 216.626C195.902 216.363 195.902 215.974 195.902 215.488C195.902 214.467 195.902 213.008 195.902 211.131C195.902 207.338 195.856 201.862 195.819 195.053L195.976 195.229L139.484 195.306L139.724 195.053V197.894C139.724 198.866 139.724 199.79 139.724 200.734V217.005L139.493 216.762L179.912 216.879L191.697 216.947H194.87H195.7H195.985C195.9 216.957 195.813 216.957 195.727 216.947H194.925H191.808L180.069 217.015L139.493 217.122H139.152V200.588C139.152 199.615 139.152 198.701 139.152 197.748V195.083C139.152 195.141 139.613 194.606 139.401 194.83L195.893 194.917H196.059V195.083C196.059 201.891 195.995 207.445 195.967 211.257C195.967 213.125 195.967 214.574 195.967 215.585C195.967 216.052 195.967 216.422 195.967 216.694C195.959 216.807 195.937 216.918 195.902 217.025Z" fill="#263238"/>
<path d="M143.763 217.025C143.624 217.025 143.523 212.113 143.523 206.044C143.523 199.975 143.624 195.053 143.763 195.053C143.901 195.053 144.002 199.975 144.002 206.044C144.002 212.113 143.901 217.025 143.763 217.025Z" fill="#263238"/>
<path d="M149.084 217.025C148.945 217.025 148.844 212.113 148.844 206.044C148.844 199.975 148.945 195.053 149.084 195.053C149.222 195.053 149.323 199.975 149.323 206.044C149.323 212.113 149.213 217.025 149.084 217.025Z" fill="#263238"/>
<path d="M154.395 217.025C154.266 217.025 154.155 212.113 154.155 206.044C154.155 199.975 154.266 195.053 154.395 195.053C154.524 195.053 154.635 199.975 154.635 206.044C154.635 212.113 154.524 217.025 154.395 217.025Z" fill="#263238"/>
<path d="M159.707 217.025C159.578 217.025 159.467 212.113 159.467 206.044C159.467 199.975 159.578 195.053 159.707 195.053C159.836 195.053 159.947 199.975 159.947 206.044C159.947 212.113 159.845 217.025 159.707 217.025Z" fill="#263238"/>
<path d="M165.019 217.025C164.89 217.025 164.779 212.113 164.779 206.044C164.779 199.975 164.89 195.053 165.019 195.053C165.148 195.053 165.259 199.975 165.259 206.044C165.259 212.113 165.157 217.025 165.019 217.025Z" fill="#263238"/>
<path d="M170.34 217.025C170.201 217.025 170.091 212.113 170.091 206.044C170.091 199.975 170.201 195.053 170.34 195.053C170.478 195.053 170.58 199.975 170.58 206.044C170.58 212.113 170.506 217.025 170.34 217.025Z" fill="#263238"/>
<path d="M175.651 217.025C175.513 217.025 175.412 212.113 175.412 206.044C175.412 199.975 175.513 195.053 175.651 195.053C175.79 195.053 175.891 199.975 175.891 206.044C175.891 212.113 175.78 217.025 175.651 217.025Z" fill="#263238"/>
<path d="M180.963 217.025C180.825 217.025 180.723 212.113 180.723 206.044C180.723 199.975 180.825 195.053 180.963 195.053C181.101 195.053 181.203 199.975 181.203 206.044C181.203 212.113 181.092 217.025 180.963 217.025Z" fill="#263238"/>
<path d="M186.275 217.025C186.146 217.025 186.035 212.113 186.035 206.044C186.035 199.975 186.146 195.053 186.275 195.053C186.404 195.053 186.515 199.975 186.515 206.044C186.515 212.113 186.404 217.025 186.275 217.025Z" fill="#263238"/>
<path d="M191.587 217.025C191.458 217.025 191.347 212.113 191.347 206.044C191.347 199.975 191.458 195.053 191.587 195.053C191.716 195.053 191.827 199.975 191.827 206.044C191.827 212.113 191.716 217.025 191.587 217.025Z" fill="#263238"/>
<path d="M335.989 205.956H313.571V234.678H335.989V205.956Z" fill="#263238"/>
<path d="M398.679 205.956H335.99V234.678H398.679V205.956Z" fill="#263238"/>
<path d="M325.246 234.668C325.108 234.668 325.006 228.297 325.006 220.439C325.006 212.58 325.108 206.199 325.246 206.199C325.384 206.199 325.486 212.57 325.486 220.439C325.486 228.307 325.375 234.668 325.246 234.668Z" fill="#455A64"/>
<path d="M335.99 234.668C335.861 234.668 335.75 228.297 335.75 220.439C335.75 212.58 335.861 206.199 335.99 206.199C336.119 206.199 336.23 212.57 336.23 220.439C336.23 228.307 336.119 234.668 335.99 234.668Z" fill="#455A64"/>
<path d="M395.157 231.39C395.157 231.39 395.157 231.254 395.157 230.991C395.157 230.729 395.157 230.339 395.157 229.853C395.157 228.832 395.157 227.373 395.11 225.496C395.11 221.703 395.11 216.227 395.027 209.419L395.184 209.594L338.692 209.671C338.48 209.905 338.978 209.37 338.932 209.428V215.108C338.932 216.986 338.932 218.853 338.932 220.691V231.39L338.701 231.147L379.12 231.263L390.915 231.332H394.078H394.908H395.193C395.108 231.348 395.021 231.348 394.935 231.332H394.142H391.016L379.277 231.4L338.701 231.516H338.471V231.263C338.471 227.82 338.471 224.251 338.471 220.565V209.438C338.415 209.487 338.922 208.952 338.71 209.175L395.203 209.263H395.369V209.428C395.369 216.285 395.304 221.79 395.286 225.603C395.286 227.47 395.286 228.919 395.24 229.931C395.24 230.398 395.24 230.767 395.24 231.04C395.227 231.16 395.199 231.278 395.157 231.39Z" fill="#455A64"/>
<path d="M343.026 231.39C342.888 231.39 342.786 226.478 342.786 220.409C342.786 214.34 342.888 209.419 343.026 209.419C343.164 209.419 343.266 214.34 343.266 220.409C343.266 226.478 343.155 231.39 343.026 231.39Z" fill="#455A64"/>
<path d="M348.337 231.39C348.208 231.39 348.098 226.478 348.098 220.409C348.098 214.34 348.208 209.419 348.337 209.419C348.467 209.419 348.577 214.34 348.577 220.409C348.577 226.478 348.485 231.39 348.337 231.39Z" fill="#455A64"/>
<path d="M353.649 231.39C353.52 231.39 353.409 226.478 353.409 220.409C353.409 214.34 353.52 209.419 353.649 209.419C353.778 209.419 353.889 214.34 353.889 220.409C353.889 226.478 353.778 231.39 353.649 231.39Z" fill="#455A64"/>
<path d="M358.961 231.39C358.832 231.39 358.721 226.478 358.721 220.409C358.721 214.34 358.832 209.419 358.961 209.419C359.09 209.419 359.201 214.34 359.201 220.409C359.201 226.478 359.099 231.39 358.961 231.39Z" fill="#455A64"/>
<path d="M364.272 231.39C364.143 231.39 364.033 226.478 364.033 220.409C364.033 214.34 364.143 209.419 364.272 209.419C364.402 209.419 364.512 214.34 364.512 220.409C364.512 226.478 364.411 231.39 364.272 231.39Z" fill="#455A64"/>
<path d="M369.594 231.39C369.455 231.39 369.354 226.478 369.354 220.409C369.354 214.34 369.455 209.419 369.594 209.419C369.732 209.419 369.834 214.34 369.834 220.409C369.834 226.478 369.695 231.39 369.594 231.39Z" fill="#455A64"/>
<path d="M374.905 231.39C374.767 231.39 374.666 226.478 374.666 220.409C374.666 214.34 374.767 209.419 374.905 209.419C375.044 209.419 375.145 214.34 375.145 220.409C375.145 226.478 375.034 231.39 374.905 231.39Z" fill="#455A64"/>
<path d="M380.217 231.39C380.088 231.39 379.977 226.478 379.977 220.409C379.977 214.34 380.088 209.419 380.217 209.419C380.346 209.419 380.457 214.34 380.457 220.409C380.457 226.478 380.346 231.39 380.217 231.39Z" fill="#455A64"/>
<path d="M385.529 231.39C385.4 231.39 385.289 226.478 385.289 220.409C385.289 214.34 385.4 209.419 385.529 209.419C385.658 209.419 385.769 214.34 385.769 220.409C385.769 226.478 385.667 231.39 385.529 231.39Z" fill="#455A64"/>
<path d="M390.841 231.39C390.712 231.39 390.601 226.478 390.601 220.409C390.601 214.34 390.712 209.419 390.841 209.419C390.97 209.419 391.081 214.34 391.081 220.409C391.081 226.478 390.979 231.39 390.841 231.39Z" fill="#455A64"/>
<path d="M339.503 263.759H317.085V292.48H339.503V263.759Z" fill="#FF725E"/>
<path d="M402.202 263.759H339.512V292.48H402.202V263.759Z" fill="#FF725E"/>
<path opacity="0.4" d="M402.202 263.759H339.512V292.48H402.202V263.759Z" fill="black"/>
<path d="M328.769 292.48C328.631 292.48 328.529 286.1 328.529 278.241C328.529 270.382 328.631 264.002 328.769 264.002C328.907 264.002 329.009 270.382 329.009 278.241C329.009 286.1 328.898 292.48 328.769 292.48Z" fill="#263238"/>
<path d="M398.679 289.202C398.679 289.202 398.679 289.056 398.679 288.803C398.679 288.551 398.679 288.142 398.679 287.656C398.679 286.683 398.679 285.176 398.679 283.299C398.679 279.505 398.633 274.039 398.596 267.231L398.753 267.396L342.261 267.484L342.501 267.231V270.09C342.501 271.063 342.501 271.987 342.501 272.921V289.202L342.261 288.959L382.689 289.066L394.474 289.134H397.647H398.477H398.762H398.504H397.702H394.585L382.846 289.202L342.27 289.319H342.04V278.504C342.04 276.665 342.04 274.808 342.04 272.921V267.231C342.04 267.28 342.501 266.745 342.289 266.978L398.781 267.056H398.947V267.231C398.947 274.039 398.882 279.583 398.855 283.405C398.855 285.263 398.855 286.712 398.855 287.724C398.855 288.191 398.855 288.56 398.855 288.833C398.813 288.964 398.754 289.088 398.679 289.202Z" fill="#263238"/>
<path d="M346.548 289.202C346.41 289.202 346.309 284.281 346.309 278.212C346.309 272.143 346.41 267.231 346.548 267.231C346.687 267.231 346.788 272.143 346.788 278.212C346.788 284.281 346.641 289.202 346.548 289.202Z" fill="#263238"/>
<path d="M351.86 289.202C351.722 289.202 351.621 284.281 351.621 278.212C351.621 272.143 351.722 267.231 351.86 267.231C351.999 267.231 352.1 272.143 352.1 278.212C352.1 284.281 351.989 289.202 351.86 289.202Z" fill="#263238"/>
<path d="M357.172 289.202C357.043 289.202 356.932 284.281 356.932 278.212C356.932 272.143 357.043 267.231 357.172 267.231C357.301 267.231 357.412 272.143 357.412 278.212C357.412 284.281 357.301 289.202 357.172 289.202Z" fill="#263238"/>
<path d="M362.484 289.202C362.355 289.202 362.244 284.281 362.244 278.212C362.244 272.143 362.355 267.231 362.484 267.231C362.613 267.231 362.724 272.143 362.724 278.212C362.724 284.281 362.613 289.202 362.484 289.202Z" fill="#263238"/>
<path d="M367.795 289.202C367.666 289.202 367.556 284.281 367.556 278.212C367.556 272.143 367.666 267.231 367.795 267.231C367.925 267.231 368.035 272.143 368.035 278.212C368.035 284.281 367.934 289.202 367.795 289.202Z" fill="#263238"/>
<path d="M373.107 289.202C372.978 289.202 372.867 284.281 372.867 278.212C372.867 272.143 372.978 267.231 373.107 267.231C373.236 267.231 373.356 272.143 373.356 278.212C373.356 284.281 373.245 289.202 373.107 289.202Z" fill="#263238"/>
<path d="M378.428 289.202C378.29 289.202 378.188 284.281 378.188 278.212C378.188 272.143 378.29 267.231 378.428 267.231C378.567 267.231 378.668 272.143 378.668 278.212C378.668 284.281 378.557 289.202 378.428 289.202Z" fill="#263238"/>
<path d="M383.74 289.202C383.601 289.202 383.5 284.281 383.5 278.212C383.5 272.143 383.601 267.231 383.74 267.231C383.878 267.231 383.98 272.143 383.98 278.212C383.98 284.281 383.869 289.202 383.74 289.202Z" fill="#263238"/>
<path d="M389.061 289.202C388.931 289.202 388.821 284.281 388.821 278.212C388.821 272.143 388.931 267.231 389.061 267.231C389.19 267.231 389.3 272.143 389.3 278.212C389.3 284.281 389.18 289.202 389.061 289.202Z" fill="#263238"/>
<path d="M394.363 289.202C394.234 289.202 394.124 284.281 394.124 278.212C394.124 272.143 394.234 267.231 394.363 267.231C394.492 267.231 394.603 272.143 394.603 278.212C394.603 284.281 394.502 289.202 394.363 289.202Z" fill="#263238"/>
<path d="M306.314 283.59H306.001H305.078L301.556 283.639L288.581 283.717L245.792 283.795C223.66 283.795 204.294 283.746 193.966 283.668L194.086 283.542C194.086 286.46 194.086 288.755 194.03 290.35C194.03 291.099 194.03 291.692 194.03 292.12C194.03 292.295 194.03 292.451 194.03 292.568C194.03 292.684 194.03 292.723 194.03 292.723C194.03 292.723 194.03 292.675 194.03 292.568V292.12C194.03 291.692 194.03 291.099 194.03 290.35C194.03 288.755 194.03 286.46 193.975 283.542V283.415H194.104C204.46 283.337 223.807 283.289 245.93 283.289L288.719 283.367L301.694 283.444L305.217 283.493H306.139L306.314 283.59Z" fill="#263238"/>
<path d="M297.001 291.721C296.681 289.044 296.681 286.335 297.001 283.658C297.32 286.335 297.32 289.044 297.001 291.721Z" fill="#263238"/>
<path d="M281.305 291.721C280.985 289.044 280.985 286.335 281.305 283.658C281.624 286.335 281.624 289.044 281.305 291.721Z" fill="#263238"/>
<path d="M265.609 291.721C265.29 289.044 265.29 286.335 265.609 283.658C265.929 286.335 265.929 289.044 265.609 291.721Z" fill="#263238"/>
<path d="M249.905 291.721C249.585 289.044 249.585 286.335 249.905 283.658C250.224 286.335 250.224 289.044 249.905 291.721Z" fill="#263238"/>
<path d="M234.209 291.721C233.889 289.044 233.889 286.335 234.209 283.658C234.529 286.335 234.529 289.044 234.209 291.721Z" fill="#263238"/>
<path d="M218.514 291.721C218.182 289.045 218.182 286.335 218.514 283.658C218.833 286.335 218.833 289.044 218.514 291.721Z" fill="#263238"/>
<path d="M202.782 291.721C202.462 289.044 202.462 286.335 202.782 283.658C203.101 286.335 203.101 289.044 202.782 291.721Z" fill="#263238"/>
<path d="M418.653 291.42C418.64 291.251 418.64 291.082 418.653 290.914C418.653 290.557 418.653 290.061 418.653 289.426C418.653 288.074 418.653 286.129 418.598 283.59L418.708 283.717C408.832 283.794 389.014 283.843 366.237 283.843L323.9 283.775L311.072 283.687H307.577H306.655C306.554 283.7 306.452 283.7 306.351 283.687H306.655H307.577L311.072 283.639L323.9 283.561L366.237 283.483C389.014 283.483 408.832 283.541 418.708 283.619H418.828V283.59C418.828 286.099 418.828 288.045 418.828 289.426C418.828 290.058 418.828 290.554 418.828 290.914C418.783 291.087 418.724 291.256 418.653 291.42Z" fill="#263238"/>
<path d="M377.995 291.75C377.675 289.073 377.675 286.364 377.995 283.687C378.314 286.364 378.314 289.073 377.995 291.75Z" fill="#263238"/>
<path d="M362.253 291.75C361.933 289.073 361.933 286.364 362.253 283.687C362.573 286.364 362.573 289.073 362.253 291.75Z" fill="#263238"/>
<path d="M346.548 291.75C346.229 289.073 346.229 286.364 346.548 283.687C346.88 286.364 346.88 289.074 346.548 291.75Z" fill="#263238"/>
<path d="M330.853 291.75C330.533 289.073 330.533 286.364 330.853 283.687C331.173 286.364 331.173 289.073 330.853 291.75Z" fill="#263238"/>
<path d="M315.158 291.75C314.838 289.073 314.838 286.364 315.158 283.687C315.477 286.364 315.477 289.073 315.158 291.75Z" fill="#263238"/>
<path d="M191.964 279.233C191.953 279.065 191.953 278.896 191.964 278.727C191.964 278.364 191.964 277.868 191.964 277.239C191.964 275.887 191.964 273.942 191.909 271.404L192.02 271.52C181.59 271.598 160.039 271.656 135.205 271.656C111.33 271.656 90.507 271.608 79.6807 271.53L79.8005 271.404C79.8005 274.321 79.8005 276.636 79.7452 278.212C79.7452 278.97 79.7452 279.554 79.7452 279.982C79.7452 280.41 79.7452 280.585 79.7452 280.585C79.7352 280.384 79.7352 280.183 79.7452 279.982C79.7452 279.554 79.7452 279.009 79.7452 278.212C79.7452 276.636 79.7452 274.321 79.6899 271.404V271.277H79.8098C90.6361 271.199 111.459 271.151 135.334 271.151C160.168 271.151 181.719 271.209 192.149 271.287H192.26V271.404C192.26 273.913 192.26 275.858 192.26 277.239C192.26 277.888 192.26 278.384 192.26 278.727C192.18 278.907 192.081 279.077 191.964 279.233Z" fill="#263238"/>
<path d="M182.66 279.554C182.34 276.877 182.34 274.168 182.66 271.491C182.979 274.168 182.979 276.877 182.66 279.554Z" fill="#263238"/>
<path d="M166.964 279.554C166.645 276.877 166.645 274.168 166.964 271.491C167.284 274.168 167.284 276.877 166.964 279.554Z" fill="#263238"/>
<path d="M151.26 279.554C150.94 276.877 150.94 274.168 151.26 271.491C151.579 274.168 151.579 276.877 151.26 279.554Z" fill="#263238"/>
<path d="M135.564 279.554C135.244 276.877 135.244 274.168 135.564 271.491C135.884 274.168 135.884 276.877 135.564 279.554Z" fill="#263238"/>
<path d="M119.869 279.554C119.549 276.877 119.549 274.168 119.869 271.491C120.189 274.168 120.189 276.877 119.869 279.554Z" fill="#263238"/>
<path d="M104.165 279.554C103.845 276.877 103.845 274.168 104.165 271.491C104.484 274.168 104.484 276.877 104.165 279.554Z" fill="#263238"/>
<path d="M88.4322 279.554C88.1125 276.877 88.1125 274.168 88.4322 271.491C88.7518 274.168 88.7518 276.877 88.4322 279.554Z" fill="#263238"/>
<path d="M136.726 220.312H114.308V249.033H136.726V220.312Z" fill="#FF725E"/>
<path d="M199.425 220.312H136.736V249.033H199.425V220.312Z" fill="#FF725E"/>
<path opacity="0.4" d="M199.425 220.312H136.736V249.033H199.425V220.312Z" fill="black"/>
<path d="M125.992 249.033C125.854 249.033 125.752 242.653 125.752 234.794C125.752 226.935 125.854 220.555 125.992 220.555C126.131 220.555 126.232 226.935 126.232 234.794C126.232 242.653 126.121 249.033 125.992 249.033Z" fill="#263238"/>
<path d="M195.902 245.756C195.902 245.756 195.902 245.61 195.902 245.357C195.902 245.104 195.902 244.696 195.902 244.209C195.902 243.237 195.902 241.729 195.902 239.852C195.902 236.059 195.856 230.593 195.819 223.784L195.976 223.95L139.484 224.037L139.724 223.784V226.644C139.724 227.616 139.724 228.54 139.724 229.474V245.756L139.493 245.513L179.912 245.62L191.697 245.688H194.87H195.7C195.795 245.679 195.89 245.679 195.985 245.688H195.727H194.925H191.808L180.069 245.756L139.493 245.872H139.152V229.338C139.152 228.365 139.152 227.451 139.152 226.508V223.648C139.152 223.697 139.613 223.162 139.401 223.395L195.893 223.473H196.059V223.648C196.059 230.456 195.995 236 195.967 239.823C195.967 241.68 195.967 243.13 195.967 244.141C195.967 244.608 195.967 244.978 195.967 245.25C195.973 245.421 195.952 245.592 195.902 245.756Z" fill="#263238"/>
<path d="M143.763 245.756C143.624 245.756 143.523 240.834 143.523 234.765C143.523 228.696 143.624 223.784 143.763 223.784C143.901 223.784 144.002 228.696 144.002 234.765C144.002 240.834 143.901 245.756 143.763 245.756Z" fill="#263238"/>
<path d="M149.084 245.756C148.945 245.756 148.844 240.834 148.844 234.765C148.844 228.696 148.945 223.784 149.084 223.784C149.222 223.784 149.323 228.696 149.323 234.765C149.323 240.834 149.213 245.756 149.084 245.756Z" fill="#263238"/>
<path d="M154.395 245.756C154.266 245.756 154.155 240.834 154.155 234.765C154.155 228.696 154.266 223.784 154.395 223.784C154.524 223.784 154.635 228.696 154.635 234.765C154.635 240.834 154.524 245.756 154.395 245.756Z" fill="#263238"/>
<path d="M159.707 245.756C159.578 245.756 159.467 240.834 159.467 234.765C159.467 228.696 159.578 223.784 159.707 223.784C159.836 223.784 159.947 228.696 159.947 234.765C159.947 240.834 159.845 245.756 159.707 245.756Z" fill="#263238"/>
<path d="M165.019 245.756C164.89 245.756 164.779 240.834 164.779 234.765C164.779 228.696 164.89 223.784 165.019 223.784C165.148 223.784 165.259 228.696 165.259 234.765C165.259 240.834 165.157 245.756 165.019 245.756Z" fill="#263238"/>
<path d="M170.34 245.756C170.201 245.756 170.091 240.834 170.091 234.765C170.091 228.696 170.201 223.784 170.34 223.784C170.478 223.784 170.58 228.696 170.58 234.765C170.58 240.834 170.506 245.756 170.34 245.756Z" fill="#263238"/>
<path d="M175.651 245.756C175.513 245.756 175.412 240.834 175.412 234.765C175.412 228.696 175.513 223.784 175.651 223.784C175.79 223.784 175.891 228.696 175.891 234.765C175.891 240.834 175.78 245.756 175.651 245.756Z" fill="#263238"/>
<path d="M180.963 245.756C180.825 245.756 180.723 240.834 180.723 234.765C180.723 228.696 180.825 223.784 180.963 223.784C181.101 223.784 181.203 228.696 181.203 234.765C181.203 240.834 181.092 245.756 180.963 245.756Z" fill="#263238"/>
<path d="M186.275 245.756C186.146 245.756 186.035 240.834 186.035 234.765C186.035 228.696 186.146 223.784 186.275 223.784C186.404 223.784 186.515 228.696 186.515 234.765C186.515 240.834 186.404 245.756 186.275 245.756Z" fill="#263238"/>
<path d="M191.587 245.756C191.458 245.756 191.347 240.834 191.347 234.765C191.347 228.696 191.458 223.784 191.587 223.784C191.716 223.784 191.827 228.696 191.827 234.765C191.827 240.834 191.716 245.756 191.587 245.756Z" fill="#263238"/>
<path d="M419.446 292.169V226.323H481.352V292.772" fill="#455A64"/>
<path d="M464.836 284.252H461.387V292.169H464.836V284.252Z" fill="#263238"/>
<path d="M426.621 273.582H424.454V279.233H426.621V273.582Z" fill="#263238"/>
<path d="M426.621 283.59H424.454V289.241H426.621V283.59Z" fill="#263238"/>
<path d="M439.061 273.582H436.894V279.233H439.061V273.582Z" fill="#263238"/>
<path d="M439.061 283.503H436.894V289.154H439.061V283.503Z" fill="#263238"/>
<path d="M451.501 273.582H449.333V279.233H451.501V273.582Z" fill="#263238"/>
<path d="M451.501 283.425H449.333V289.076H451.501V283.425Z" fill="#263238"/>
<path d="M463.942 273.582H461.774V279.233H463.942V273.582Z" fill="#263238"/>
<path d="M476.372 273.582H474.205V279.233H476.372V273.582Z" fill="#263238"/>
<path d="M476.372 283.094H474.205V288.745H476.372V283.094Z" fill="#263238"/>
<path d="M464.577 248.382H461.128V256.299H464.577V248.382Z" fill="#263238"/>
<path d="M426.621 233.219H424.454V238.87H426.621V233.219Z" fill="#263238"/>
<path d="M426.621 243.227H424.454V248.878H426.621V243.227Z" fill="#263238"/>
<path d="M439.061 233.219H436.894V238.87H439.061V233.219Z" fill="#263238"/>
<path d="M439.061 243.139H436.894V248.79H439.061V243.139Z" fill="#263238"/>
<path d="M451.501 233.219H449.333V238.87H451.501V233.219Z" fill="#263238"/>
<path d="M451.501 243.062H449.333V248.713H451.501V243.062Z" fill="#263238"/>
<path d="M463.942 233.219H461.774V238.87H463.942V233.219Z" fill="#263238"/>
<path d="M476.372 233.219H474.205V238.87H476.372V233.219Z" fill="#263238"/>
<path d="M476.372 242.731H474.205V248.382H476.372V242.731Z" fill="#263238"/>
<path d="M134.191 354.464C134.191 354.464 143.873 317.038 108.868 308.518C76.1306 300.553 76.9329 279.233 76.9329 279.233H194.215V292.169H502.894C502.894 292.169 501.216 334.098 472.25 354.464" fill="#455A64"/>
<path d="M135.011 336.899H488.757C488.757 336.899 478.982 350.846 472.25 354.465H134.19C134.971 348.648 135.246 342.768 135.011 336.899Z" fill="#263238"/>
<path d="M479.618 256.299C479.577 256.058 479.562 255.814 479.572 255.569C479.572 255.054 479.572 254.354 479.572 253.478L479.664 253.575C474.399 253.673 461.71 253.731 446.899 253.731C432.089 253.731 419.391 253.673 414.125 253.575L414.218 253.478C414.218 254.354 414.218 255.054 414.172 255.569C414.182 255.814 414.166 256.058 414.125 256.299C414.096 256.057 414.081 255.813 414.079 255.569C414.079 255.054 414.079 254.354 414.033 253.478V253.439H414.125C419.391 253.352 432.08 253.284 446.899 253.284C461.719 253.284 474.399 253.352 479.664 253.439H479.756C479.756 254.315 479.756 255.015 479.756 255.53C479.733 255.79 479.686 256.048 479.618 256.299Z" fill="#263238"/>
<path d="M422.259 257.057C422.13 257.057 422.019 256.231 422.019 255.2C422.019 254.169 422.13 253.342 422.259 253.342C422.388 253.342 422.499 254.178 422.499 255.2C422.499 256.221 422.36 257.057 422.259 257.057Z" fill="#263238"/>
<path d="M430.891 257.057C430.762 257.057 430.651 256.231 430.651 255.2C430.651 254.169 430.762 253.342 430.891 253.342C431.02 253.342 431.13 254.178 431.13 255.2C431.13 256.221 431.029 257.057 430.891 257.057Z" fill="#263238"/>
<path d="M439.568 257.057C439.43 257.057 439.328 256.231 439.328 255.2C439.328 254.169 439.43 253.342 439.568 253.342C439.706 253.342 439.808 254.178 439.808 255.2C439.808 256.221 439.697 257.057 439.568 257.057Z" fill="#263238"/>
<path d="M448.237 257.057C448.099 257.057 447.997 256.231 447.997 255.2C447.997 254.169 448.099 253.342 448.237 253.342C448.375 253.342 448.477 254.178 448.477 255.2C448.477 256.221 448.366 257.057 448.237 257.057Z" fill="#263238"/>
<path d="M456.905 257.057C456.776 257.057 456.666 256.231 456.666 255.2C456.666 254.169 456.776 253.342 456.905 253.342C457.034 253.342 457.145 254.178 457.145 255.2C457.145 256.221 457.034 257.057 456.905 257.057Z" fill="#263238"/>
<path d="M465.601 257.057C465.472 257.057 465.361 256.231 465.361 255.2C465.361 254.169 465.472 253.342 465.601 253.342C465.73 253.342 465.841 254.178 465.841 255.2C465.841 256.221 465.712 257.057 465.601 257.057Z" fill="#263238"/>
<path d="M474.242 257.057C474.113 257.057 474.002 256.231 474.002 255.2C474.002 254.169 474.113 253.342 474.242 253.342C474.371 253.342 474.482 254.178 474.482 255.2C474.482 256.221 474.38 257.057 474.242 257.057Z" fill="#263238"/>
<path d="M481.342 256.299H412.788V263.516H481.342V256.299Z" fill="#263238"/>
<path opacity="0.4" d="M429.857 216.237H437.318L438.139 221.236H429.857V216.237Z" fill="white"/>
<path d="M502.599 291.42C502.589 291.248 502.589 291.076 502.599 290.904C502.599 290.525 502.599 290.029 502.599 289.387C502.599 288.025 502.599 286.08 502.534 283.62L502.663 283.756C494.364 283.834 479.443 283.872 462.466 283.872L428.806 283.804L418.57 283.717H415.804H415.084C415.002 283.729 414.918 283.729 414.835 283.717H415.084H415.804L418.57 283.668L428.769 283.59L462.429 283.513C479.406 283.513 494.308 283.561 502.626 283.629H502.755V283.59C502.755 286.051 502.755 287.996 502.691 289.358C502.691 290 502.691 290.496 502.691 290.875C502.678 291.06 502.647 291.242 502.599 291.42Z" fill="#263238"/>
<path d="M493.266 291.75C492.946 289.073 492.946 286.364 493.266 283.687C493.586 286.364 493.586 289.073 493.266 291.75Z" fill="#263238"/>
<path d="M477.589 291.75C477.258 289.074 477.258 286.364 477.589 283.687C477.909 286.364 477.909 289.073 477.589 291.75Z" fill="#263238"/>
<path d="M461.912 291.75C461.592 289.073 461.592 286.364 461.912 283.687C462.232 286.364 462.232 289.073 461.912 291.75Z" fill="#263238"/>
<path d="M446.235 291.75C445.916 289.073 445.916 286.364 446.235 283.687C446.555 286.364 446.555 289.073 446.235 291.75Z" fill="#263238"/>
<path d="M430.494 291.75C430.174 289.073 430.174 286.364 430.494 283.687C430.826 286.364 430.826 289.074 430.494 291.75Z" fill="#263238"/>
<path d="M414.798 291.75C414.479 289.073 414.479 286.364 414.798 283.687C415.118 286.364 415.118 289.073 414.798 291.75Z" fill="#263238"/>
<path d="M399.103 291.75C398.783 289.073 398.783 286.364 399.103 283.687C399.423 286.364 399.423 289.073 399.103 291.75Z" fill="#263238"/>
</svg>
