<svg width="24" height="24" viewBox="0 0 24 24" fill="none" xmlns="http://www.w3.org/2000/svg">
<path d="M2.25 14.4C3.9 15.45 6 17.25 6 19.35V21H6.15C6.15 21 7.5 21 9.15 19.5C10.65 21 12.15 21 12.15 21C12.15 21 13.65 21 15.15 19.5C16.65 21 18 21 18 21H18.15V19.35C18.15 17.25 20.25 15.45 21.9 14.4C22.8 13.8 22.65 12.6 21.6 12.3L19.5 11.7V6H18V4.5H13.5V1.5H10.5V4.5H6V6H4.5V11.7L2.55 12.3C1.35 12.6 1.35 13.8 2.25 14.4ZM6 7.5H7.5V6H16.5V7.5H18V11.25L13.05 9.75C12.3 9.6 11.55 9.6 10.8 9.75L6 11.25V7.5ZM21 21C19.5 22.5 18 22.5 18 22.5C18 22.5 16.5 22.5 15 21C13.5 22.5 12 22.5 12 22.5C12 22.5 10.5 22.5 9 21C7.5 22.5 6 22.5 6 22.5C6 22.5 4.5 22.5 3 21C1.5 22.5 0 22.5 0 22.5V24H24V22.5C24 22.5 22.5 22.5 21 21Z" fill="black"/>
</svg>
