<svg width="24" height="24" viewBox="0 0 24 24" fill="none" xmlns="http://www.w3.org/2000/svg">
<path d="M4.33333 3H10.896C11.6027 3 12.2813 3.28133 12.7813 3.78133L20.448 11.448C21.4893 12.4893 21.4893 14.1773 20.448 15.2187L15.2187 20.448C14.1773 21.4893 12.4893 21.4893 11.448 20.448L3.78133 12.7813C3.28133 12.2813 3 11.6027 3 10.896V4.33333C3 3.59733 3.59733 3 4.33333 3Z" stroke="black" stroke-width="2.5" stroke-linecap="round" stroke-linejoin="round"/>
<path d="M8.33268 9.99984C9.25316 9.99984 9.99935 9.25365 9.99935 8.33317C9.99935 7.4127 9.25316 6.6665 8.33268 6.6665C7.41221 6.6665 6.66602 7.4127 6.66602 8.33317C6.66602 9.25365 7.41221 9.99984 8.33268 9.99984Z" fill="#7D7D7D"/>
</svg>
