<svg width="906" height="596" viewBox="0 0 906 596" fill="none" xmlns="http://www.w3.org/2000/svg">
<path d="M721.56 358.741L719.79 375.641C715.183 386.648 710.58 397.648 705.98 408.641C704.373 412.501 702.76 416.355 701.14 420.201C700.405 422.001 699.363 423.659 698.06 425.101C697.995 425.198 697.91 425.279 697.809 425.338C697.709 425.397 697.596 425.432 697.48 425.441C697.09 425.441 696.95 424.921 696.92 424.531C696.698 420.363 696.201 416.214 695.43 412.111C691.12 392.301 668.12 385.041 650.08 385.491C642.863 385.601 635.751 387.248 629.22 390.321C619.8 394.881 616.13 407.561 615.63 408.031L615.23 409.661L608.77 436.571C607.41 442.571 606.37 445.741 600.83 447.341C600.65 447.401 595.13 450.341 594.95 450.341C592.81 450.941 598.67 449.651 596.35 449.261L589 448.111L585.87 447.391L540.2 436.581C541.97 436.881 543.78 437.211 545.62 437.581L556.22 440.111L553.42 426.671C546.13 384.831 558.21 346.871 578.79 326.261C584.21 320.841 586.9 319.451 593.22 315.841L596.77 324.251C596.77 324.251 633.09 335.081 641.65 301.851C645.11 302.151 651.76 302.101 655.19 302.851C673.069 306.6 689.217 316.13 701.14 329.971C702.19 331.171 703.22 332.411 704.24 333.671L704.78 334.331C705.41 335.121 706.08 335.931 706.71 336.741L707.16 337.381C712.387 344.204 717.196 351.337 721.56 358.741Z" fill="#2679F3"/>
<path d="M290 183.825C295.76 155.025 320.22 127.125 390.08 120.735C545.36 106.545 461.42 63.7352 511.98 16.8852C562.54 -29.9648 753.71 47.1152 703.7 167.495C653.69 287.875 818.78 154.265 888.7 306.745C898.829 328.872 903.706 353.041 902.95 377.365C902.068 403.065 895.45 428.243 883.58 451.055C861.25 494.675 819.77 533.535 759.78 557.615C750.927 561.222 741.66 564.465 731.98 567.345" stroke="#CCDDE2" stroke-width="4.52" stroke-miterlimit="10"/>
<path d="M781.88 420.685C780.67 434.815 771.09 437.115 771.09 437.115C762.99 441.905 750.55 436.755 748.04 427.775C748.003 427.679 747.983 427.578 747.98 427.475C745.98 419.785 742.08 409.905 736.84 399.095C726.74 374.655 713.61 350.015 696.77 330.525C684.846 316.685 668.699 307.155 650.82 303.405C650.76 303.405 650.73 303.345 650.67 303.345C626.96 296.205 615.42 281.625 610.42 267.645C610.42 267.645 610.42 267.645 610.42 267.585C608.28 258.755 606.1 250.145 607.27 244.935C609.27 235.805 610.27 225.935 607.78 223.935C604.65 221.315 598.99 223.255 584.59 226.155C572.12 228.715 565.47 227.265 563.97 219.645C563.733 218.463 563.612 217.26 563.61 216.055C563.55 216.815 560.61 213.795 560.47 214.515C559.53 218.405 557.65 219.965 553.55 221.675C547.46 224.205 544.97 233.975 544.07 240.485C543.13 247.415 546.25 256.975 548.72 263.485C545.56 259.875 541.94 260.295 536.28 262.485C534.86 263.025 531.28 262.875 528.45 261.885C528.85 261.542 529.321 261.292 529.83 261.155C530.74 260.855 524.14 257.575 525.1 257.365C534.71 255.195 540.1 247.185 538.96 240.135C536.13 222.385 539.9 201.505 551.89 187.675C565.11 172.465 586.68 169.305 604.94 176.265C619.28 181.715 632.84 192.895 637.81 207.805C637.81 207.865 637.81 207.925 637.87 207.985C638.502 209.881 638.987 211.824 639.32 213.795C641.15 224.885 637.24 236.125 635.07 247.085C634.29 251.035 636.27 255.345 636.69 258.475C639.1 277.275 660.8 282.585 677.97 290.565C714.06 307.375 743.53 336.115 763.35 371.065C776.51 394.205 781.21 409.985 781.88 420.685Z" fill="#A67634"/>
<path d="M591.62 312.113C591.23 312.323 590.84 312.533 590.48 312.773C583.999 316.488 578.04 321.048 572.76 326.333C552.19 346.943 540.11 384.903 547.4 426.743L550.2 440.113" stroke="black" stroke-width="4.52" stroke-miterlimit="10"/>
<path d="M773.62 592.852C773.624 561.617 770.924 530.441 765.55 499.672C761.955 478.795 757.005 458.175 750.73 437.942C746.96 425.652 742.35 412.392 736.87 399.082C731.781 386.626 725.902 374.508 719.27 362.802C712.839 351.339 705.314 340.525 696.8 330.512C684.876 316.672 668.729 307.141 650.85 303.392C647.421 302.665 643.951 302.144 640.46 301.832" stroke="black" stroke-width="4.52" stroke-miterlimit="10"/>
<path d="M404 321.024L403.49 320.934C397.383 319.911 391.117 320.437 385.266 322.463C379.415 324.49 374.166 327.953 370 332.534L335.8 369.794L331.8 374.194C331.551 374.464 331.317 374.748 331.1 375.044" stroke="black" stroke-width="4.52" stroke-miterlimit="10"/>
<path d="M354.61 384.772L373.38 363.952L373.41 363.922" stroke="black" stroke-width="4.52" stroke-miterlimit="10"/>
<path d="M517.89 492.311L606.18 523.421C614.683 526.417 623.731 527.548 632.71 526.735C641.688 525.922 650.387 523.186 658.213 518.711C666.04 514.237 672.811 508.129 678.066 500.804C683.322 493.479 686.938 485.109 688.67 476.261L709.56 369.621C710.629 364.145 710.579 358.51 709.414 353.053C708.249 347.597 705.992 342.433 702.78 337.871C701.883 336.586 700.908 335.357 699.86 334.191" stroke="black" stroke-width="4.52" stroke-miterlimit="10"/>
<path d="M459.46 488.013C448.22 495.603 439.96 518.653 435.57 533.783C434.818 536.32 433.263 538.546 431.139 540.125C429.015 541.704 426.437 542.553 423.79 542.543C421.998 542.543 420.227 542.154 418.6 541.403C416.103 540.232 414.074 538.254 412.841 535.789C411.607 533.323 411.24 530.513 411.8 527.813C419.15 491.873 445.09 420.923 534.2 436.563C535.98 436.863 537.79 437.193 539.62 437.563L550.2 440.113L579.87 447.343L587.87 449.273C590.905 450.009 594.085 449.895 597.06 448.943C597.244 448.907 597.424 448.857 597.6 448.793C600.34 447.853 602.799 446.237 604.748 444.093C606.697 441.95 608.074 439.35 608.75 436.533L615.5 408.453L615.89 406.823L624.73 370.113" stroke="black" stroke-width="4.52" stroke-miterlimit="10"/>
<path d="M416 372.941H385.76C382.312 372.941 379.006 371.571 376.568 369.134C374.13 366.696 372.76 363.389 372.76 359.941C372.76 356.493 374.13 353.187 376.568 350.749C379.006 348.311 382.312 346.941 385.76 346.941H428.6" stroke="black" stroke-width="4.52" stroke-miterlimit="10"/>
<path d="M392.79 372.933C392.36 378.233 390.34 382.153 387.36 384.863C379.68 391.863 365.61 391.063 355.82 386.273" stroke="black" stroke-width="4.52" stroke-miterlimit="10"/>
<path d="M335.84 369.781C327.17 359.301 328.94 345.091 335.67 334.111C354.76 302.951 398.38 308.931 426.67 321.881C449.59 332.341 469.67 348.061 489.22 363.741C498.77 371.401 508.15 379.381 517.22 387.741C518.885 389.248 520.87 390.358 523.026 390.986C525.182 391.615 527.452 391.746 529.666 391.371C531.88 390.996 533.98 390.123 535.808 388.819C537.636 387.515 539.145 385.813 540.22 383.841C545.22 374.611 550.63 364.541 551.65 361.751" stroke="black" stroke-width="4.52" stroke-miterlimit="10"/>
<path d="M387.37 384.863C387.37 384.863 432.48 409.333 465.99 444.493" stroke="black" stroke-width="4.52" stroke-miterlimit="10"/>
<path d="M448.45 501.284C443.45 509.824 447.75 522.364 457.2 525.364C469.269 529.258 482.029 530.537 494.63 529.114C508.38 527.514 517.52 516.164 523.54 503.164C523.976 502.197 524.203 501.148 524.207 500.088C524.211 499.027 523.992 497.977 523.564 497.007C523.136 496.036 522.508 495.166 521.722 494.454C520.935 493.742 520.008 493.204 519 492.874C517.181 492.275 515.203 492.384 513.46 493.179C511.718 493.974 510.339 495.397 509.6 497.164C507.6 501.784 504.51 507.564 500.41 510.164" stroke="black" stroke-width="4.52" stroke-miterlimit="10"/>
<path d="M472 499.683C472 499.683 459.65 512.963 469.39 527.023C469.818 527.614 470.322 528.145 470.89 528.603" stroke="black" stroke-width="4.52" stroke-miterlimit="10"/>
<path d="M488.29 501.875C488.29 501.875 476.87 527.575 491.52 529.455" stroke="black" stroke-width="4.52" stroke-miterlimit="10"/>
<path d="M893.74 592.875H186.5" stroke="black" stroke-width="4.52" stroke-miterlimit="10"/>
<path d="M464.73 544.442H394.2C393.484 551.1 390.33 557.258 385.345 561.73C380.36 566.202 373.897 568.671 367.2 568.662H130.14C130.153 575.074 132.706 581.219 137.24 585.752C141.773 590.286 147.918 592.839 154.33 592.852H464.73C471.152 592.849 477.312 590.303 481.86 585.769C486.409 581.235 488.976 575.084 489 568.662V552.402C489 550.28 488.157 548.245 486.657 546.745C485.157 545.245 483.122 544.402 481 544.402L464.73 544.442Z" stroke="black" stroke-width="4.52" stroke-miterlimit="10"/>
<path d="M355.82 386.273C357.898 389.148 359.393 392.403 360.22 395.853L393.63 535.193C394.368 538.218 394.561 541.35 394.2 544.443C393.484 551.101 390.33 557.259 385.345 561.731C380.36 566.202 373.897 568.672 367.2 568.663H125.74C119.642 568.662 113.721 566.607 108.934 562.83C104.146 559.053 100.77 553.773 99.35 547.843L66 408.513C65.041 404.523 65 400.369 65.879 396.361C66.758 392.353 68.534 388.597 71.075 385.375C73.615 382.153 76.853 379.549 80.545 377.76C84.237 375.97 88.287 375.041 92.39 375.043H333.83C337.796 375.035 341.716 375.903 345.308 377.585C348.9 379.267 352.076 381.721 354.61 384.773L355.82 386.273Z" stroke="black" stroke-width="4.52" stroke-miterlimit="10"/>
<path d="M318 212.865C316.46 211.055 314.84 209.315 313.15 207.625C303.667 198.109 292.397 190.56 279.988 185.411C267.579 180.263 254.275 177.617 240.84 177.625H114.26C100.829 177.619 87.528 180.261 75.118 185.399C62.708 190.537 51.4329 198.07 41.936 207.568C32.4391 217.066 24.9071 228.342 19.7705 240.752C14.6339 253.163 11.9934 266.463 12 279.895V280.625C11.9871 290.154 14.4142 299.529 19.05 307.855C24.2595 313.16 30.4777 317.37 37.3386 320.236C44.1995 323.103 51.5645 324.567 59 324.545H183.1C186.887 324.545 190.519 326.049 193.197 328.727C195.875 331.405 197.38 335.037 197.38 338.825C197.385 342.617 198.895 346.251 201.578 348.931C204.261 351.61 207.898 353.115 211.69 353.115H212L242.64 352.335C242.64 352.035 242.58 351.765 242.58 351.495C239.931 350.584 237.633 348.868 236.007 346.588C234.381 344.307 233.508 341.576 233.51 338.775V338.115C233.513 334.328 235.018 330.698 237.695 328.02C240.373 325.343 244.004 323.837 247.79 323.835H278C292.852 323.835 307.096 317.935 317.598 307.433C328.1 296.931 334 282.687 334 267.835C334.052 248.356 328.498 229.273 318 212.865ZM98.8 272.115C93.957 272.117 89.222 270.682 85.195 267.993C81.167 265.303 78.028 261.479 76.174 257.005C74.321 252.531 73.836 247.608 74.781 242.858C75.726 238.108 78.058 233.745 81.484 230.321C84.909 226.897 89.273 224.567 94.023 223.623C98.773 222.68 103.696 223.167 108.17 225.023C112.643 226.879 116.465 230.019 119.153 234.048C121.841 238.076 123.274 242.812 123.27 247.655C123.262 254.141 120.681 260.36 116.094 264.945C111.506 269.531 105.286 272.109 98.8 272.115ZM178.67 272.115C173.828 272.113 169.095 270.675 165.07 267.983C161.045 265.291 157.909 261.466 156.059 256.991C154.208 252.517 153.726 247.594 154.673 242.845C155.62 238.097 157.955 233.736 161.381 230.314C164.807 226.892 169.17 224.563 173.92 223.622C178.67 222.68 183.592 223.169 188.064 225.025C192.536 226.881 196.358 230.022 199.045 234.05C201.732 238.078 203.164 242.813 203.16 247.655C203.16 250.869 202.526 254.052 201.295 257.022C200.064 259.992 198.26 262.689 195.985 264.961C193.711 267.233 191.011 269.034 188.04 270.261C185.069 271.489 181.885 272.119 178.67 272.115ZM254.74 272.115C249.898 272.111 245.167 270.671 241.143 267.978C237.119 265.285 233.985 261.459 232.136 256.984C230.287 252.51 229.806 247.587 230.754 242.839C231.703 238.091 234.038 233.731 237.464 230.311C240.891 226.89 245.254 224.562 250.004 223.621C254.753 222.681 259.675 223.169 264.147 225.026C268.618 226.882 272.439 230.023 275.125 234.051C277.812 238.079 279.244 242.813 279.24 247.655C279.24 250.87 278.606 254.054 277.374 257.024C276.143 259.995 274.337 262.693 272.062 264.965C269.786 267.237 267.085 269.037 264.113 270.264C261.14 271.491 257.955 272.12 254.74 272.115Z" fill="#D7E8F0"/>
<path d="M334 267.845C334 282.697 328.1 296.941 317.598 307.443C307.096 317.945 292.852 323.845 278 323.845H247.81C244.025 323.847 240.396 325.351 237.719 328.027C235.042 330.702 233.535 334.33 233.53 338.115V338.775C233.528 341.576 234.401 344.307 236.027 346.588C237.653 348.868 239.951 350.584 242.6 351.495C243.995 351.98 245.463 352.223 246.94 352.215L242.66 352.335L212 353.115H211.67C207.88 353.115 204.245 351.611 201.562 348.934C198.879 346.257 197.368 342.625 197.36 338.835C197.36 335.047 195.856 331.415 193.177 328.737C190.499 326.059 186.867 324.555 183.08 324.555H59C44.1479 324.555 29.9041 318.655 19.402 308.153C8.9 297.651 3 283.407 3 268.555V267.825C3.0013 254.402 5.6464 241.112 10.7841 228.711C15.9218 216.311 23.4517 205.044 32.9437 195.554C42.4357 186.064 53.704 178.536 66.105 173.401C78.506 168.266 91.798 165.623 105.22 165.625H231.76C258.871 165.627 284.872 176.397 304.045 195.566C323.217 214.735 333.992 240.733 334 267.845Z" stroke="black" stroke-width="4.52" stroke-miterlimit="10"/>
<path d="M650.82 303.361C650.76 303.361 650.73 303.301 650.67 303.301C626.96 296.161 615.42 281.581 610.42 267.601C610.42 267.601 610.42 267.601 610.42 267.541C606.51 256.641 606.6 246.091 608.01 239.791C608.854 236.454 609.39 233.047 609.61 229.611C609.94 219.881 602.8 222.261 582.38 226.331C573 228.231 567 224.671 564 219.611C563.708 219.17 563.454 218.705 563.24 218.221C561.84 215.276 561.26 212.008 561.56 208.761" stroke="black" stroke-width="4.52" stroke-miterlimit="10"/>
<path d="M549.81 264.803C549.45 264.293 549.08 263.803 548.72 263.413C545.56 259.803 541.94 260.223 536.28 262.413C534.86 262.953 531.28 262.803 528.45 261.813C526.07 260.963 524.29 259.493 525.1 257.293C525.308 256.84 525.618 256.442 526.004 256.128C526.391 255.814 526.844 255.593 527.33 255.483C528.273 255.245 529.228 255.054 530.19 254.913C539.9 252.743 537.73 241.503 536.55 234.453C533.69 216.713 537.49 195.833 549.6 182.003C562.94 166.793 584.76 163.623 603.19 170.583C619.4 176.703 634.65 189.983 637.81 207.733C637.81 207.793 637.81 207.853 637.87 207.913C637.93 207.973 637.87 208.063 637.87 208.123C639.74 219.213 637.87 231.233 635.7 242.203C634.4 248.703 634.89 254.013 636.7 258.403C642.37 272.773 661.5 277.783 676.92 284.893C713.41 301.703 743.14 330.443 763.18 365.393C779 393.113 782.75 410.163 781.88 420.683C780.67 434.813 771.09 437.113 771.09 437.113C762.99 441.903 750.54 436.753 748.04 427.773C748.003 427.677 747.983 427.575 747.98 427.473C745.98 419.783 742.08 409.903 736.84 399.093" stroke="black" stroke-width="4.52" stroke-miterlimit="10"/>
<path d="M561.52 208.761C561.52 214.111 559 219.391 553.52 221.641C547.36 224.181 544.86 230.871 543.96 237.381C542.702 246.914 544.753 256.589 549.77 264.791C554.42 272.511 561.99 281.021 572.71 281.021C592.35 281.021 600.77 271.551 600.77 271.551" stroke="black" stroke-width="4.52" stroke-miterlimit="10"/>
<path d="M581.91 240.453C583.755 240.453 585.25 238.958 585.25 237.113C585.25 235.269 583.755 233.773 581.91 233.773C580.065 233.773 578.57 235.269 578.57 237.113C578.57 238.958 580.065 240.453 581.91 240.453Z" fill="black"/>
<path d="M552.53 242.402C554.375 242.402 555.87 240.907 555.87 239.062C555.87 237.218 554.375 235.722 552.53 235.722C550.685 235.722 549.19 237.218 549.19 239.062C549.19 240.907 550.685 242.402 552.53 242.402Z" fill="black"/>
<path d="M566.94 233.972C566.94 233.972 565.27 247.162 565.94 248.972C566.61 250.782 570.79 248.712 570.79 248.712" stroke="black" stroke-width="4.52" stroke-miterlimit="10"/>
<path d="M573.13 260.251C580.28 262.881 587.66 259.531 589.82 253.101" stroke="black" stroke-width="4.52" stroke-miterlimit="10"/>
<path d="M599.197 241.939C604.047 235.073 602.278 225.481 595.246 220.512C588.214 215.544 578.581 217.082 573.731 223.948C568.881 230.813 570.65 240.406 577.682 245.374C584.714 250.342 594.347 248.804 599.197 241.939Z" stroke="black" stroke-width="4.52" stroke-miterlimit="10"/>
<path d="M560.14 243.904C564.99 237.038 563.221 227.445 556.189 222.477C549.157 217.509 539.524 219.047 534.674 225.913C529.824 232.778 531.593 242.371 538.625 247.339C545.657 252.307 555.29 250.769 560.14 243.904Z" stroke="black" stroke-width="4.52" stroke-miterlimit="10"/>
<path d="M547.13 224.305C549.908 224.297 552.585 225.34 554.626 227.224C556.666 229.109 557.918 231.695 558.13 234.465C558.241 235.841 558.074 237.225 557.638 238.534C557.201 239.843 556.505 241.051 555.59 242.085C554.665 243.133 553.539 243.983 552.277 244.584C551.016 245.186 549.646 245.526 548.25 245.585H547.69C544.911 245.593 542.232 244.549 540.191 242.662C538.151 240.775 536.9 238.186 536.69 235.415C536.581 234.039 536.751 232.654 537.189 231.345C537.627 230.036 538.325 228.828 539.24 227.795C540.165 226.75 541.29 225.902 542.55 225.3C543.809 224.699 545.176 224.357 546.57 224.295H547.13V224.305ZM547.13 222.035H546.46C544.774 222.11 543.121 222.524 541.598 223.25C540.075 223.977 538.714 225.002 537.594 226.265C536.475 227.528 535.621 229.003 535.083 230.602C534.544 232.201 534.332 233.892 534.46 235.575C534.731 238.909 536.244 242.019 538.7 244.29C541.156 246.561 544.375 247.826 547.72 247.835H548.39C550.076 247.759 551.729 247.346 553.252 246.619C554.775 245.893 556.136 244.867 557.256 243.605C558.375 242.342 559.229 240.867 559.767 239.268C560.306 237.669 560.518 235.977 560.39 234.295C560.119 230.961 558.606 227.851 556.15 225.58C553.694 223.309 550.475 222.044 547.13 222.035Z" fill="white"/>
<path d="M571.04 233.761L562.84 234.181" stroke="black" stroke-width="4.52" stroke-miterlimit="10"/>
<path opacity="0.53" d="M597.245 240.56C601.353 234.746 599.856 226.622 593.902 222.416C587.947 218.21 579.791 219.513 575.683 225.327C571.575 231.142 573.072 239.265 579.026 243.472C584.981 247.678 593.137 246.375 597.245 240.56Z" fill="white"/>
<path opacity="0.53" d="M558.188 242.525C562.296 236.711 560.799 228.587 554.845 224.381C548.891 220.174 540.734 221.478 536.626 227.292C532.518 233.107 534.015 241.23 539.97 245.436C545.924 249.643 554.08 248.339 558.188 242.525Z" fill="white"/>
<path d="M578.56 281.023L596.77 324.283C596.77 324.283 631.9 333.733 640.44 300.493" stroke="black" stroke-width="4.52" stroke-miterlimit="10"/>
<path d="M233.05 505.23C246.803 500.893 254.002 484.85 249.129 469.396C244.256 453.942 229.157 444.929 215.405 449.265C201.652 453.602 194.453 469.645 199.326 485.099C204.198 500.553 219.297 509.566 233.05 505.23Z" fill="#D7E8F0"/>
<path d="M573.7 592.852C573.31 557.642 567.1 522.852 564.24 508.652" stroke="black" stroke-width="4.52" stroke-miterlimit="10"/>
</svg>
