<svg width="24" height="33" viewBox="0 0 24 33" fill="none" xmlns="http://www.w3.org/2000/svg">
<path d="M4 21V9L12 3L20 9V21H14V14H10V21H4Z" fill="#FF725E"/>
<path fill-rule="evenodd" clip-rule="evenodd" d="M0 27.0856C0 26.5711 0.582405 26.2727 1 26.5732C2 27.2928 4 28.7072 6 27.7643C8 26.7965 10 23.4715 12 23.4715C14 23.4715 16 26.7965 18 27.2928C20 27.7643 22 25.3821 23 24.1911C23.3399 23.7862 24 24.0266 24 24.5552V32C24 32.5523 23.5523 33 23 33C22 33 20 33 18 33C16 33 14 33 12 33C10 33 8 33 6 33C4 33 2 33 1 33C0.447715 33 0 32.5523 0 32V27.0856Z" fill="#FF725E"/>
</svg>
