<svg width="20" height="20" viewBox="0 0 20 20" fill="none" xmlns="http://www.w3.org/2000/svg">
<path d="M6.94466 3.05566H5.83355C4.60577 3.05566 3.61133 4.05011 3.61133 5.27789V15.8334C3.61133 17.0612 4.60577 18.0557 5.83355 18.0557H14.1669C15.3947 18.0557 16.3891 17.0612 16.3891 15.8334V5.27789C16.3891 4.05011 15.3947 3.05566 14.1669 3.05566H13.0558" stroke="black" stroke-width="1.5" stroke-linecap="round" stroke-linejoin="round"/>
<path d="M11.9443 1.38892H8.05545C7.4418 1.38892 6.94434 1.88638 6.94434 2.50003V3.61114C6.94434 4.22479 7.4418 4.72225 8.05545 4.72225H11.9443C12.558 4.72225 13.0554 4.22479 13.0554 3.61114V2.50003C13.0554 1.88638 12.558 1.38892 11.9443 1.38892Z" stroke="#7D7D7D" stroke-width="1.5" stroke-linecap="round" stroke-linejoin="round"/>
<path d="M6.94434 11.389L8.88878 13.6112L13.0554 8.05566" stroke="#7D7D7D" stroke-width="1.5" stroke-linecap="round" stroke-linejoin="round"/>
</svg>
