<svg width="309" height="34" viewBox="0 0 309 34" fill="none" xmlns="http://www.w3.org/2000/svg">
<path d="M6.97982 28.316L8.8649 26.4343C10.8699 28.1674 13.3781 29.2141 16.0222 29.4211V32.0526C16.0222 32.5789 16.431 33 16.9582 33C17.4986 33 17.9073 32.5789 17.9073 32.0526V29.4211C20.6356 29.2103 23.1138 28.1183 25.0778 26.4343L26.9629 28.316C27.3453 28.684 27.9384 28.6971 28.2944 28.316C28.6768 27.9474 28.6768 27.3554 28.2944 26.9737L26.4094 25.092C28.1302 23.0837 29.1684 20.5822 29.3747 17.9474H32.0509C32.1757 17.948 32.2994 17.9239 32.4148 17.8765C32.5302 17.8291 32.6351 17.7594 32.7233 17.6713C32.8116 17.5832 32.8815 17.4785 32.929 17.3633C32.9765 17.2481 33.0006 17.1246 33 17C33 16.4737 32.5781 16.0657 32.0509 16.0657H29.3752C29.1714 13.4264 28.1329 10.9199 26.4094 8.908L28.2944 7.02629C28.6768 6.64457 28.6768 6.05257 28.3076 5.684C27.9384 5.316 27.3453 5.316 26.9629 5.684L25.0778 7.56571C23.1143 5.88171 20.6356 4.78971 17.9073 4.592V1.94743C17.9073 1.42114 17.498 1 16.9582 1C16.431 1 16.0222 1.42114 16.0222 1.94743V4.592C13.3782 4.7884 10.8682 5.83132 8.86547 7.56571L6.98039 5.684C6.5854 5.316 6.00494 5.316 5.62254 5.684C5.25388 6.05257 5.26705 6.64457 5.6357 7.02686L7.52078 8.908C5.79753 10.92 4.75915 13.4264 4.55549 16.0657H1.87814C1.35148 16.0657 1 16.4743 1 17C1 17.5257 1.35148 17.9474 1.87871 17.9474H4.55435C4.76086 20.582 5.79928 23.0833 7.52021 25.0914L5.63513 26.9731C5.26647 27.3549 5.25331 27.9469 5.63513 28.3154C6.00436 28.6966 6.58426 28.6834 6.98039 28.3154M17.9073 6.73714C20.0689 6.93429 22.0198 7.77657 23.562 9.07886L17.9073 14.724V6.73714ZM10.3676 9.07886C11.9687 7.74026 13.942 6.92307 16.0222 6.73714V14.724L10.3676 9.07886ZM6.78175 16.0657C6.96608 13.9211 7.78354 11.9869 9.04865 10.4343L14.6776 16.0657H6.78175ZM19.2514 16.0657L24.8929 10.4343C26.1903 12.045 26.9753 14.0061 27.1473 16.0657H19.2514ZM6.78175 17.9474H14.6776L9.04865 23.5657C7.78354 22.0263 6.96608 20.0789 6.78175 17.9474ZM19.2514 17.9474H27.1473C26.9624 20.0789 26.1455 22.0263 24.8929 23.5657L19.2514 17.9474ZM10.367 24.9211L16.0217 19.2766V27.2629C13.9413 27.0766 11.968 26.259 10.367 24.92M17.9062 19.2754L23.562 24.92C22.0192 26.2229 20.0683 27.0646 17.9062 27.2623V19.2754Z" fill="#1B212D"/>
<path d="M6.97982 28.316L8.8649 26.4343C10.8699 28.1674 13.3781 29.2141 16.0222 29.4211V32.0526C16.0222 32.5789 16.431 33 16.9582 33C17.4986 33 17.9073 32.5789 17.9073 32.0526V29.4211C20.6356 29.2103 23.1138 28.1183 25.0778 26.4343L26.9629 28.316C27.3453 28.684 27.9384 28.6971 28.2944 28.316C28.6768 27.9474 28.6768 27.3554 28.2944 26.9737L26.4094 25.092C28.1302 23.0837 29.1684 20.5822 29.3747 17.9474H32.0509C32.1757 17.948 32.2994 17.9239 32.4148 17.8765C32.5302 17.8291 32.6351 17.7594 32.7233 17.6713C32.8116 17.5832 32.8815 17.4785 32.929 17.3633C32.9765 17.2481 33.0006 17.1246 33 17C33 16.4737 32.5781 16.0657 32.0509 16.0657H29.3752C29.1714 13.4264 28.1329 10.9199 26.4094 8.908L28.2944 7.02629C28.6768 6.64457 28.6768 6.05257 28.3076 5.684C27.9384 5.316 27.3453 5.316 26.9629 5.684L25.0778 7.56571C23.1143 5.88171 20.6356 4.78971 17.9073 4.592V1.94743C17.9073 1.42114 17.498 1 16.9582 1C16.431 1 16.0222 1.42114 16.0222 1.94743V4.592C13.3782 4.7884 10.8682 5.83132 8.86547 7.56571L6.98039 5.684C6.5854 5.316 6.00494 5.316 5.62254 5.684C5.25388 6.05257 5.26705 6.64457 5.6357 7.02686L7.52078 8.908C5.79753 10.92 4.75915 13.4264 4.55549 16.0657H1.87814C1.35148 16.0657 1 16.4743 1 17C1 17.5257 1.35148 17.9474 1.87871 17.9474H4.55435C4.76086 20.582 5.79929 23.0833 7.52021 25.0914L5.63513 26.9731C5.26647 27.3549 5.25331 27.9469 5.63513 28.3154C6.00436 28.6966 6.58426 28.6834 6.98039 28.3154M10.367 24.9211L16.0217 19.2766V27.2629C13.9413 27.0766 11.968 26.259 10.367 24.92M17.9073 6.73714C20.0689 6.93429 22.0198 7.77657 23.562 9.07886L17.9073 14.724V6.73714ZM10.3676 9.07886C11.9687 7.74026 13.942 6.92307 16.0222 6.73714V14.724L10.3676 9.07886ZM6.78175 16.0657C6.96608 13.9211 7.78354 11.9869 9.04865 10.4343L14.6776 16.0657H6.78175ZM19.2514 16.0657L24.8929 10.4343C26.1903 12.045 26.9753 14.0061 27.1473 16.0657H19.2514ZM6.78175 17.9474H14.6776L9.04865 23.5657C7.78354 22.0263 6.96608 20.0789 6.78175 17.9474ZM19.2514 17.9474H27.1473C26.9624 20.0789 26.1455 22.0263 24.8929 23.5657L19.2514 17.9474ZM17.9062 19.2754L23.562 24.92C22.0192 26.2229 20.0683 27.0646 17.9062 27.2623V19.2754Z" stroke="#1B212D"/>
<path d="M54.32 13.304H54.272L50.456 26H46.544L41.432 8.504H45.296L48.632 20.936L52.4 8.504H56.24L60.032 21.032L63.488 8.504H67.208L62.024 26H58.112L54.32 13.304ZM74.6984 26.264C72.6584 26.264 71.0744 25.784 69.8984 24.824C68.7224 23.864 67.9784 22.544 67.6904 20.84L71.0744 20.048C71.2184 20.96 71.6264 21.704 72.3224 22.232C73.0184 22.76 73.8344 23 74.8184 23C75.6344 23 76.2824 22.832 76.7384 22.448C77.2184 22.064 77.4584 21.584 77.4584 21.032C77.4584 20.168 76.6904 19.424 75.4664 19.208L72.9944 18.704C71.5784 18.44 70.4264 17.84 69.5864 16.976C68.7464 16.088 68.3384 14.984 68.3384 13.688C68.3384 12.152 69.0584 10.736 70.1624 9.776C71.2904 8.84 72.8744 8.24 74.5304 8.24C76.4504 8.24 78.0824 8.816 79.0904 9.704C80.0984 10.64 80.6744 11.72 80.8424 12.896L77.5544 13.856C77.2424 12.416 76.2344 11.48 74.4824 11.48C73.7624 11.48 73.1624 11.672 72.6584 12.056C72.1784 12.44 71.9384 12.896 71.9384 13.4C71.9384 14.288 72.5384 14.984 73.7384 15.224L76.1864 15.68C77.7704 15.968 78.9944 16.568 79.8584 17.504C80.6984 18.44 81.1304 19.544 81.1304 20.816C81.1304 22.184 80.5304 23.504 79.4984 24.56C78.4184 25.592 76.7144 26.264 74.6984 26.264ZM105.038 17.216C105.038 19.808 104.078 22.04 102.398 23.552C100.694 25.088 98.1258 26 95.0778 26H89.7978V8.504H95.1498C98.2218 8.504 100.622 9.272 102.398 10.808C104.15 12.344 105.038 14.48 105.038 17.216ZM101.318 17.216C101.318 13.76 98.6778 11.912 95.2458 11.912H93.3978V22.568H95.1978C97.0458 22.568 98.5338 22.112 99.6378 21.176C100.766 20.24 101.318 18.92 101.318 17.216ZM110.528 18.68H115.664C115.616 18.224 115.424 17.768 115.04 17.336C114.656 16.904 113.936 16.616 113.12 16.616C112.4 16.616 111.824 16.832 111.344 17.288C110.888 17.744 110.6 18.224 110.528 18.68ZM119.096 21.008H110.456C110.552 21.728 110.888 22.28 111.44 22.712C111.992 23.144 112.616 23.36 113.384 23.36C113.912 23.36 114.416 23.192 114.896 22.904C115.376 22.616 115.736 22.232 115.904 21.752L118.784 22.736C118.4 23.84 117.704 24.704 116.72 25.328C115.736 25.952 114.656 26.264 113.432 26.264C112.232 26.264 111.152 26 110.144 25.472C109.16 24.968 108.368 24.224 107.768 23.264C107.192 22.304 106.88 21.224 106.88 20.024C106.88 18.896 107.168 17.84 107.744 16.88C108.32 15.92 109.088 15.176 110.072 14.6C111.032 14.048 112.088 13.784 113.216 13.784C114.992 13.784 116.408 14.336 117.512 15.44C118.616 16.544 119.168 17.984 119.168 19.76C119.168 20.312 119.144 20.72 119.096 21.008ZM125.911 26.264C124.567 26.264 123.367 25.88 122.647 25.352C122.263 25.088 121.951 24.8 121.687 24.44C121.135 23.792 120.919 23.168 120.871 22.592L123.943 21.944C123.991 22.376 124.183 22.76 124.519 23.072C124.879 23.408 125.311 23.576 125.863 23.576C126.775 23.576 127.255 23.048 127.255 22.544C127.255 22.04 126.871 21.68 126.103 21.512L124.591 21.176C122.311 20.672 121.159 19.424 121.159 17.696C121.159 16.616 121.591 15.68 122.455 14.936C123.343 14.168 124.423 13.784 125.719 13.784C127.615 13.784 128.935 14.528 129.655 15.416C130.183 16.04 130.423 16.64 130.495 17.216L127.471 17.864C127.303 17 126.703 16.448 125.743 16.448C124.951 16.448 124.423 16.904 124.423 17.456C124.423 17.912 124.735 18.2 125.359 18.32L127.015 18.68C129.367 19.136 130.639 20.504 130.639 22.304C130.639 23.312 130.231 24.272 129.487 25.016C128.719 25.76 127.447 26.264 125.911 26.264ZM133.217 14.072H136.673V15.56H136.721C137.585 14.408 138.785 13.832 140.369 13.832C142.073 13.832 143.585 14.624 144.545 15.8C145.481 16.976 146.033 18.488 146.033 20.024C146.033 21.56 145.457 23.12 144.473 24.272C143.489 25.448 141.953 26.24 140.273 26.24C138.761 26.24 137.585 25.712 136.745 24.68H136.697V31.88H133.217V14.072ZM137.465 17.84C136.889 18.416 136.625 19.136 136.625 20.024C136.625 20.912 136.889 21.632 137.465 22.208C138.041 22.784 138.737 23.072 139.553 23.072C140.393 23.072 141.089 22.784 141.665 22.208C142.217 21.656 142.505 20.912 142.505 20.024C142.505 19.136 142.217 18.416 141.665 17.84C141.089 17.264 140.369 17 139.553 17C138.713 17 138.017 17.264 137.465 17.84ZM151.81 26.24C150.73 26.24 149.794 25.904 149.026 25.256C148.234 24.584 147.85 23.72 147.85 22.664V22.568C147.85 20.864 148.882 19.88 150.25 19.4C151.21 19.04 152.098 18.92 153.106 18.92H154.258C154.882 18.92 155.194 18.608 155.194 18.104C155.194 17.264 154.522 16.616 153.322 16.616C152.266 16.616 151.45 17.24 151.186 18.248L148.114 17.552C148.258 16.736 148.594 16.04 149.146 15.464C149.674 14.888 150.322 14.456 151.09 14.192C151.834 13.928 152.626 13.784 153.49 13.784C156.442 13.76 158.626 15.44 158.626 18.608V24.08C158.626 24.8 158.674 25.448 158.722 26H155.482C155.434 25.688 155.41 25.208 155.41 24.512H155.362C154.546 25.64 153.37 26.24 151.81 26.24ZM152.818 23.696C153.538 23.696 154.114 23.456 154.546 23C154.978 22.568 155.194 22.016 155.194 21.392V21.104H153.106C152.674 21.104 152.29 21.224 151.93 21.464C151.546 21.704 151.354 22.04 151.354 22.472C151.354 23.264 152.002 23.696 152.818 23.696ZM167.429 26.264C163.733 26.312 160.925 23.552 160.997 20.048C160.997 18.896 161.285 17.84 161.861 16.88C162.413 15.92 163.205 15.176 164.189 14.6C165.197 14.072 166.301 13.784 167.501 13.784C168.773 13.784 170.045 14.144 171.101 14.816C172.181 15.464 172.997 16.544 173.309 17.864L170.117 18.824C169.973 18.32 169.661 17.888 169.205 17.528C168.725 17.168 168.149 17 167.429 17C166.637 17 165.965 17.264 165.413 17.816C164.861 18.368 164.573 19.088 164.573 20C164.573 20.888 164.837 21.632 165.389 22.184C165.917 22.76 166.589 23.048 167.453 23.048C168.869 23.048 169.829 22.232 170.189 21.2L173.381 22.16C173.141 23.048 172.709 23.792 172.085 24.44C171.437 25.064 170.741 25.52 169.949 25.808C169.133 26.12 168.293 26.264 167.429 26.264ZM186.847 26H183.367V19.376C183.367 18.008 182.671 17.048 181.303 17.048C180.583 17.048 180.055 17.264 179.695 17.72C179.335 18.176 179.143 18.704 179.143 19.352V26H175.663V7.808H179.143V15.464H179.167C179.647 14.816 180.319 14.336 180.967 14.12C181.615 13.904 182.071 13.832 182.455 13.832C183.919 13.832 185.095 14.384 185.791 15.296C186.487 16.184 186.847 17.312 186.847 18.584V26ZM189.192 20.072C189.192 18.896 189.504 17.84 190.08 16.88C190.656 15.92 191.448 15.152 192.456 14.6C193.464 14.072 194.544 13.784 195.744 13.784C196.92 13.784 198.024 14.048 199.008 14.6C199.992 15.128 200.784 15.872 201.36 16.832C201.936 17.768 202.224 18.824 202.224 20C202.224 21.176 201.936 22.232 201.36 23.192C200.76 24.176 199.968 24.92 198.984 25.448C197.976 26 196.872 26.264 195.696 26.264C194.496 26.264 193.416 26 192.408 25.472C191.424 24.92 190.656 24.2 190.08 23.24C189.504 22.28 189.192 21.224 189.192 20.072ZM193.608 17.84C193.056 18.416 192.768 19.136 192.768 20.024C192.768 20.912 193.056 21.632 193.608 22.208C194.184 22.784 194.88 23.072 195.72 23.072C196.536 23.072 197.232 22.784 197.808 22.208C198.384 21.656 198.648 20.912 198.648 20.024C198.648 19.136 198.384 18.416 197.808 17.84C197.232 17.264 196.536 16.976 195.696 16.976C194.88 16.976 194.184 17.264 193.608 17.84ZM208.974 26.264C207.63 26.264 206.43 25.88 205.71 25.352C205.326 25.088 205.014 24.8 204.75 24.44C204.198 23.792 203.982 23.168 203.934 22.592L207.006 21.944C207.054 22.376 207.246 22.76 207.582 23.072C207.942 23.408 208.374 23.576 208.926 23.576C209.838 23.576 210.318 23.048 210.318 22.544C210.318 22.04 209.934 21.68 209.166 21.512L207.654 21.176C205.374 20.672 204.222 19.424 204.222 17.696C204.222 16.616 204.654 15.68 205.518 14.936C206.406 14.168 207.486 13.784 208.782 13.784C210.678 13.784 211.998 14.528 212.718 15.416C213.246 16.04 213.486 16.64 213.558 17.216L210.534 17.864C210.366 17 209.766 16.448 208.806 16.448C208.014 16.448 207.486 16.904 207.486 17.456C207.486 17.912 207.798 18.2 208.422 18.32L210.078 18.68C212.43 19.136 213.702 20.504 213.702 22.304C213.702 23.312 213.294 24.272 212.55 25.016C211.782 25.76 210.51 26.264 208.974 26.264ZM233.857 11.96H225.937V15.656H233.041V19.112H225.937V26H222.337V8.504H233.857V11.96ZM236.436 26V7.784H239.94V26H236.436ZM243.043 14.072H246.523V20.72C246.523 22.112 247.195 23 248.611 23C249.307 23 249.835 22.784 250.195 22.352C250.555 21.92 250.747 21.392 250.747 20.72V14.072H254.227V26H250.795V24.512H250.747C249.955 25.664 248.851 26.24 247.435 26.24C245.995 26.24 244.819 25.688 244.123 24.8C243.427 23.936 243.043 22.808 243.043 21.56V14.072ZM264.516 26H260.988L256.14 14.072H259.836L262.764 22.04L265.716 14.072H269.412L264.516 26ZM271.527 11.432C271.095 11 270.903 10.52 270.903 9.92C270.903 9.32 271.095 8.792 271.527 8.36C271.959 7.952 272.463 7.736 273.039 7.736C273.639 7.736 274.167 7.952 274.599 8.36C275.007 8.792 275.223 9.32 275.223 9.92C275.223 10.52 275.007 11 274.599 11.432C274.167 11.864 273.639 12.08 273.039 12.08C272.463 12.08 271.959 11.864 271.527 11.432ZM271.311 14.072H274.815V26H271.311V14.072ZM281.326 26.24C280.246 26.24 279.31 25.904 278.542 25.256C277.75 24.584 277.366 23.72 277.366 22.664V22.568C277.366 20.864 278.398 19.88 279.766 19.4C280.726 19.04 281.614 18.92 282.622 18.92H283.774C284.398 18.92 284.71 18.608 284.71 18.104C284.71 17.264 284.038 16.616 282.838 16.616C281.782 16.616 280.966 17.24 280.702 18.248L277.63 17.552C277.774 16.736 278.11 16.04 278.662 15.464C279.19 14.888 279.838 14.456 280.606 14.192C281.35 13.928 282.142 13.784 283.006 13.784C285.958 13.76 288.142 15.44 288.142 18.608V24.08C288.142 24.8 288.19 25.448 288.238 26H284.998C284.95 25.688 284.926 25.208 284.926 24.512H284.878C284.062 25.64 282.886 26.24 281.326 26.24ZM282.334 23.696C283.054 23.696 283.63 23.456 284.062 23C284.494 22.568 284.71 22.016 284.71 21.392V21.104H282.622C282.19 21.104 281.806 21.224 281.446 21.464C281.062 21.704 280.87 22.04 280.87 22.472C280.87 23.264 281.518 23.696 282.334 23.696ZM291.449 11.432C291.017 11 290.825 10.52 290.825 9.92C290.825 9.32 291.017 8.792 291.449 8.36C291.881 7.952 292.385 7.736 292.961 7.736C293.561 7.736 294.089 7.952 294.521 8.36C294.929 8.792 295.145 9.32 295.145 9.92C295.145 10.52 294.929 11 294.521 11.432C294.089 11.864 293.561 12.08 292.961 12.08C292.385 12.08 291.881 11.864 291.449 11.432ZM291.233 14.072H294.737V26H291.233V14.072ZM302.232 26.264C300.888 26.264 299.688 25.88 298.968 25.352C298.584 25.088 298.272 24.8 298.008 24.44C297.456 23.792 297.24 23.168 297.192 22.592L300.264 21.944C300.312 22.376 300.504 22.76 300.84 23.072C301.2 23.408 301.632 23.576 302.184 23.576C303.096 23.576 303.576 23.048 303.576 22.544C303.576 22.04 303.192 21.68 302.424 21.512L300.912 21.176C298.632 20.672 297.48 19.424 297.48 17.696C297.48 16.616 297.912 15.68 298.776 14.936C299.664 14.168 300.744 13.784 302.04 13.784C303.936 13.784 305.256 14.528 305.976 15.416C306.504 16.04 306.744 16.64 306.816 17.216L303.792 17.864C303.624 17 303.024 16.448 302.064 16.448C301.272 16.448 300.744 16.904 300.744 17.456C300.744 17.912 301.056 18.2 301.68 18.32L303.336 18.68C305.688 19.136 306.96 20.504 306.96 22.304C306.96 23.312 306.552 24.272 305.808 25.016C305.04 25.76 303.768 26.264 302.232 26.264Z" fill="#1B212D"/>
</svg>
