<svg width="24" height="24" viewBox="0 0 24 24" fill="none" xmlns="http://www.w3.org/2000/svg">
<path d="M6 15C5.17 15 4.42 15.34 3.88 15.88C2.7 17.06 2 22 2 22C2 22 6.94 21.3 8.12 20.12C8.54099 19.7012 8.82802 19.1668 8.94467 18.5845C9.06131 18.0023 9.0023 17.3985 8.77513 16.8498C8.54796 16.3012 8.16287 15.8324 7.66876 15.5031C7.17465 15.1737 6.59382 14.9986 6 15ZM6.71 18.71C6.43 18.99 4.54 19.47 4.54 19.47C4.54 19.47 5.01 17.59 5.3 17.3C5.47 17.11 5.72 17 6 17C6.19798 17.0003 6.39145 17.0592 6.55604 17.1692C6.72062 17.2792 6.84896 17.4355 6.92488 17.6184C7.0008 17.8012 7.02091 18.0025 6.98267 18.1967C6.94443 18.391 6.84956 18.5696 6.71 18.71ZM17.42 13.65C23.78 7.29 21.66 2.34 21.66 2.34C21.66 2.34 16.71 0.22 10.35 6.58L7.86 6.08C7.53632 6.01785 7.20237 6.03545 6.88702 6.13128C6.57166 6.2271 6.28438 6.39827 6.05 6.63L2 10.69L7 12.83L11.17 17L13.31 22L17.36 17.95C17.83 17.48 18.04 16.8 17.91 16.14L17.42 13.65ZM7.41 10.83L5.5 10.01L7.47 8.04L8.91 8.33C8.34 9.16 7.83 10.03 7.41 10.83ZM13.99 18.5L13.17 16.59C13.97 16.17 14.84 15.66 15.66 15.09L15.95 16.53L13.99 18.5ZM16 12.24C14.68 13.56 12.62 14.64 11.96 14.97L9.03 12.04C9.35 11.39 10.43 9.33 11.76 8C16.44 3.32 19.99 4.01 19.99 4.01C19.99 4.01 20.68 7.56 16 12.24ZM15 11C16.1 11 17 10.1 17 9C17 7.9 16.1 7 15 7C13.9 7 13 7.9 13 9C13 10.1 13.9 11 15 11Z" fill="#FF725E" stroke="#FF725E" stroke-width="0.5"/>
</svg>
