<svg width="24" height="24" viewBox="0 0 24 24" fill="none" xmlns="http://www.w3.org/2000/svg">
<path fill-rule="evenodd" clip-rule="evenodd" d="M4.8002 9.89998C5.11845 9.89998 5.42368 9.77355 5.64872 9.5485C5.87377 9.32346 6.0002 9.01824 6.0002 8.69998C6.0002 8.38172 5.87377 8.07649 5.64872 7.85145C5.42368 7.6264 5.11845 7.49998 4.8002 7.49998C4.48194 7.49998 4.17671 7.6264 3.95167 7.85145C3.72662 8.07649 3.6002 8.38172 3.6002 8.69998C3.6002 9.01824 3.72662 9.32346 3.95167 9.5485C4.17671 9.77355 4.48194 9.89998 4.8002 9.89998ZM4.8002 12.3C5.75497 12.3 6.67065 11.9207 7.34578 11.2456C8.02091 10.5704 8.4002 9.65475 8.4002 8.69998C8.4002 7.7452 8.02091 6.82952 7.34578 6.15439C6.67065 5.47926 5.75497 5.09998 4.8002 5.09998C3.84542 5.09998 2.92974 5.47926 2.25461 6.15439C1.57948 6.82952 1.2002 7.7452 1.2002 8.69998C1.2002 9.65475 1.57948 10.5704 2.25461 11.2456C2.92974 11.9207 3.84542 12.3 4.8002 12.3Z" fill="black"/>
<path fill-rule="evenodd" clip-rule="evenodd" d="M4.86016 13.2C4.38277 13.2 3.92493 13.3896 3.58736 13.7272C3.2498 14.0647 3.06016 14.5226 3.06016 15V16.8C3.06016 17.1182 2.93373 17.4235 2.70868 17.6485C2.48364 17.8735 2.17842 18 1.86016 18C1.5419 18 1.23667 17.8735 1.01163 17.6485C0.786584 17.4235 0.660156 17.1182 0.660156 16.8V15C0.660156 13.8861 1.10265 12.8178 1.89031 12.0301C2.67796 11.2425 3.74625 10.8 4.86016 10.8C5.97407 10.8 7.04235 11.2425 7.83 12.0301C8.61766 12.8178 9.06016 13.8861 9.06016 15V16.8C9.06016 17.1182 8.93373 17.4235 8.70868 17.6485C8.48364 17.8735 8.17842 18 7.86016 18C7.5419 18 7.23667 17.8735 7.01163 17.6485C6.78658 17.4235 6.66016 17.1182 6.66016 16.8V15C6.66016 14.5226 6.47051 14.0647 6.13295 13.7272C5.79538 13.3896 5.33755 13.2 4.86016 13.2ZM19.2002 9.89998C18.8819 9.89998 18.5767 9.77355 18.3516 9.5485C18.1266 9.32346 18.0002 9.01824 18.0002 8.69998C18.0002 8.38172 18.1266 8.07649 18.3516 7.85145C18.5767 7.6264 18.8819 7.49998 19.2002 7.49998C19.5184 7.49998 19.8236 7.6264 20.0487 7.85145C20.2737 8.07649 20.4002 8.38172 20.4002 8.69998C20.4002 9.01824 20.2737 9.32346 20.0487 9.5485C19.8236 9.77355 19.5184 9.89998 19.2002 9.89998ZM19.2002 12.3C18.2454 12.3 17.3297 11.9207 16.6546 11.2456C15.9794 10.5704 15.6002 9.65475 15.6002 8.69998C15.6002 7.7452 15.9794 6.82952 16.6546 6.15439C17.3297 5.47926 18.2454 5.09998 19.2002 5.09998C20.1549 5.09998 21.0706 5.47926 21.7457 6.15439C22.4209 6.82952 22.8002 7.7452 22.8002 8.69998C22.8002 9.65475 22.4209 10.5704 21.7457 11.2456C21.0706 11.9207 20.1549 12.3 19.2002 12.3Z" fill="black"/>
<path fill-rule="evenodd" clip-rule="evenodd" d="M19.1399 13.1999C19.6173 13.1999 20.0752 13.3896 20.4127 13.7271C20.7503 14.0647 20.9399 14.5225 20.9399 14.9999V16.7999C20.9399 17.1182 21.0664 17.4234 21.2914 17.6485C21.5165 17.8735 21.8217 17.9999 22.1399 17.9999C22.4582 17.9999 22.7634 17.8735 22.9885 17.6485C23.2135 17.4234 23.3399 17.1182 23.3399 16.7999V14.9999C23.3399 13.886 22.8974 12.8177 22.1098 12.0301C21.3221 11.2424 20.2539 10.7999 19.1399 10.7999C18.026 10.7999 16.9577 11.2424 16.1701 12.0301C15.3824 12.8177 14.9399 13.886 14.9399 14.9999V16.7999C14.9399 17.1182 15.0664 17.4234 15.2914 17.6485C15.5165 17.8735 15.8217 17.9999 16.1399 17.9999C16.4582 17.9999 16.7634 17.8735 16.9885 17.6485C17.2135 17.4234 17.3399 17.1182 17.3399 16.7999V14.9999C17.3399 14.5225 17.5296 14.0647 17.8671 13.7271C18.2047 13.3896 18.6626 13.1999 19.1399 13.1999Z" fill="black"/>
<path fill-rule="evenodd" clip-rule="evenodd" d="M12.0602 16.5C11.2645 16.5 10.5014 16.816 9.93884 17.3787C9.37623 17.9413 9.06016 18.7043 9.06016 19.5V21.3C9.06016 21.6182 8.93373 21.9235 8.70868 22.1485C8.48364 22.3735 8.17842 22.5 7.86016 22.5C7.5419 22.5 7.23667 22.3735 7.01163 22.1485C6.78658 21.9235 6.66016 21.6182 6.66016 21.3V19.5C6.66016 18.0678 7.22908 16.6943 8.24178 15.6816C9.25448 14.6689 10.628 14.1 12.0602 14.1C13.4923 14.1 14.8658 14.6689 15.8785 15.6816C16.8912 16.6943 17.4602 18.0678 17.4602 19.5V21.3C17.4602 21.6182 17.3337 21.9235 17.1087 22.1485C16.8836 22.3735 16.5784 22.5 16.2602 22.5C15.9419 22.5 15.6367 22.3735 15.4116 22.1485C15.1866 21.9235 15.0602 21.6182 15.0602 21.3V19.5C15.0602 18.7043 14.7441 17.9413 14.1815 17.3787C13.6189 16.816 12.8558 16.5 12.0602 16.5Z" fill="black"/>
<path fill-rule="evenodd" clip-rule="evenodd" d="M12.0004 13.2C12.3187 13.2 12.6239 13.0736 12.8489 12.8486C13.074 12.6235 13.2004 12.3183 13.2004 12C13.2004 11.6818 13.074 11.3765 12.8489 11.1515C12.6239 10.9265 12.3187 10.8 12.0004 10.8C11.6821 10.8 11.3769 10.9265 11.1519 11.1515C10.9268 11.3765 10.8004 11.6818 10.8004 12C10.8004 12.3183 10.9268 12.6235 11.1519 12.8486C11.3769 13.0736 11.6821 13.2 12.0004 13.2ZM12.0004 15.6C12.9552 15.6 13.8708 15.2207 14.546 14.5456C15.2211 13.8705 15.6004 12.9548 15.6004 12C15.6004 11.0452 15.2211 10.1296 14.546 9.45444C13.8708 8.77931 12.9552 8.40002 12.0004 8.40002C11.0456 8.40002 10.1299 8.77931 9.45481 9.45444C8.77968 10.1296 8.40039 11.0452 8.40039 12C8.40039 12.9548 8.77968 13.8705 9.45481 14.5456C10.1299 15.2207 11.0456 15.6 12.0004 15.6Z" fill="black"/>
</svg>
