<svg width="16" height="16" viewBox="0 0 16 16" fill="none" xmlns="http://www.w3.org/2000/svg">
<path d="M9.22066 11.7202C9.08818 11.8623 9.01606 12.0504 9.01948 12.2447C9.02291 12.439 9.10162 12.6244 9.23904 12.7618C9.37645 12.8992 9.56184 12.9779 9.75614 12.9813C9.95044 12.9848 10.1385 12.9126 10.2807 12.7802L13.7807 9.28015C13.9211 9.13953 14 8.9489 14 8.75015C14 8.5514 13.9211 8.36078 13.7807 8.22015L10.2807 4.72015C10.1385 4.58767 9.95044 4.51555 9.75614 4.51898C9.56184 4.52241 9.37645 4.60112 9.23904 4.73853C9.10162 4.87595 9.02291 5.06133 9.01948 5.25563C9.01606 5.44993 9.08818 5.63798 9.22066 5.78015L11.4407 8.00015H7.75066C6.62349 8.00015 5.54249 7.55239 4.74546 6.75536C3.94843 5.95833 3.50066 4.87732 3.50066 3.75015C3.50066 3.55124 3.42164 3.36048 3.28099 3.21982C3.14034 3.07917 2.94957 3.00015 2.75066 3.00015C2.55175 3.00015 2.36098 3.07917 2.22033 3.21982C2.07968 3.36048 2.00066 3.55124 2.00066 3.75015C2.00066 4.50525 2.14939 5.25296 2.43835 5.95058C2.72732 6.64821 3.15086 7.28208 3.6848 7.81602C4.21873 8.34995 4.85261 8.7735 5.55023 9.06246C6.24785 9.35143 6.99556 9.50015 7.75066 9.50015H11.4407L9.22066 11.7202Z" fill="black"/>
</svg>
