<svg width="20" height="20" viewBox="0 0 20 20" fill="none" xmlns="http://www.w3.org/2000/svg">
<path d="M1.94434 9.72217C3.52322 10.4066 6.351 11.3922 9.99989 11.3922C13.6488 11.3922 16.4766 10.4066 18.0554 9.72217" stroke="#7D7D7D" stroke-width="1.5" stroke-linecap="round" stroke-linejoin="round"/>
<path d="M10 10.2778V12.7778" stroke="black" stroke-width="1.5" stroke-linecap="round" stroke-linejoin="round"/>
<path d="M6.94434 5.2778V2.50003C6.94434 1.88669 7.44211 1.38892 8.05545 1.38892H11.9443C12.5577 1.38892 13.0554 1.88669 13.0554 2.50003V5.2778" stroke="#7D7D7D" stroke-width="1.5" stroke-linecap="round" stroke-linejoin="round"/>
<path d="M15.8332 5.27783H4.16656C2.93926 5.27783 1.94434 6.27275 1.94434 7.50005V14.7223C1.94434 15.9496 2.93926 16.9445 4.16656 16.9445H15.8332C17.0605 16.9445 18.0554 15.9496 18.0554 14.7223V7.50005C18.0554 6.27275 17.0605 5.27783 15.8332 5.27783Z" stroke="black" stroke-width="1.5" stroke-linecap="round" stroke-linejoin="round"/>
</svg>
